<svg width="250" height="44" viewBox="0 0 250 44" fill="none" xmlns="http://www.w3.org/2000/svg">
<path d="M24 23C17.0964 23 11.5 28.8203 11.5 36H36.5C36.5 28.8203 30.9036 23 24 23Z" fill="#75D9BB"/>
<path d="M16.5 29.5V33.5C16.5 33.7761 16.2761 34 16 34C15.7239 34 15.5 33.7761 15.5 33.5V27H18.5V31.5C18.5 31.7761 18.2761 32 18 32C17.7239 32 17.5 31.7761 17.5 31.5V29.5C17.5 29.2239 17.2761 29 17 29C16.7239 29 16.5 29.2239 16.5 29.5Z" fill="#AFF2DE"/>
<path d="M9.30202 5.55265C9.24187 5.07098 9.83423 4.79476 10.1645 5.15045L27.3432 23.6487L12.4303 30.6027L9.30202 5.55265Z" fill="#ECD582"/>
<path d="M29.5 27C27.8431 27 26.5 28.3431 26.5 30H32.5C32.5 28.3431 31.1569 27 29.5 27Z" fill="white"/>
<path d="M29.5 28C28.3954 28 27.5 28.8954 27.5 30H31.5C31.5 28.8954 30.6046 28 29.5 28Z" fill="#484848"/>
<circle cx="27.5" cy="25" r="2" fill="#75D9BB"/>
<circle cx="22.5" cy="26" r="1" fill="#75D9BB"/>
<circle cx="21" cy="26.5" r="1.5" fill="#75D9BB"/>
<circle cx="13.5" cy="31" r="2" fill="#75D9BB"/>
<path d="M23.5 27C21.8431 27 20.5 28.3431 20.5 30H26.5C26.5 28.3431 25.1569 27 23.5 27Z" fill="white"/>
<path d="M23.5 28C22.3954 28 21.5 28.8954 21.5 30H25.5C25.5 28.8954 24.6046 28 23.5 28Z" fill="#484848"/>
<path d="M30 34C20.8873 34 6.5 35.1591 6.5 37H39.5C39.5 35.1591 39.1127 34 30 34Z" fill="#AFF2DE"/>
<path d="M24 32C24 31.7238 24.2239 31.5 24.5 31.5C24.7761 31.5 25 31.7238 25 32H24ZM28 32C28 31.7238 28.2239 31.5 28.5 31.5C28.7761 31.5 29 31.7238 29 32H28ZM25 32L25.0003 32.0027C25.0003 32.0027 25.0014 32.0072 25.0034 32.0121C25.0074 32.022 25.0171 32.0405 25.0389 32.0663C25.0845 32.1202 25.1701 32.1902 25.3094 32.2599C25.5883 32.3993 26.0085 32.5 26.5 32.5V33.5C25.8869 33.5 25.3072 33.3768 24.8622 33.1543C24.4471 32.9467 24 32.5675 24 32H25ZM26.5 32.5C26.9915 32.5 27.4117 32.3993 27.6906 32.2599C27.8299 32.1902 27.9155 32.1202 27.9611 32.0663C27.9829 32.0405 27.9926 32.022 27.9966 32.0121C27.9986 32.0072 27.9997 32.0027 27.9997 32.0027L28 32H29C29 32.5675 28.5529 32.9467 28.1378 33.1543C27.6928 33.3768 27.1131 33.5 26.5 33.5V32.5Z" fill="#484848"/>
<path d="M62.644 23.04C64.26 23.04 65.54 23.512 66.484 24.456C67.428 25.384 67.9 26.784 67.9 28.656V36H64.9V29.04C64.9 27.92 64.652 27.08 64.156 26.52C63.66 25.944 62.948 25.656 62.02 25.656C61.012 25.656 60.204 25.992 59.596 26.664C58.988 27.32 58.684 28.264 58.684 29.496V36H55.684V29.04C55.684 27.92 55.436 27.08 54.94 26.52C54.444 25.944 53.732 25.656 52.804 25.656C51.78 25.656 50.964 25.984 50.356 26.64C49.764 27.296 49.468 28.248 49.468 29.496V36H46.468V23.184H49.324V24.816C49.804 24.24 50.404 23.8 51.124 23.496C51.844 23.192 52.644 23.04 53.524 23.04C54.484 23.04 55.332 23.224 56.068 23.592C56.82 23.944 57.412 24.472 57.844 25.176C58.372 24.504 59.052 23.984 59.884 23.616C60.716 23.232 61.636 23.04 62.644 23.04ZM71.7336 23.184H74.7336V36H71.7336V23.184ZM73.2456 21.072C72.7016 21.072 72.2456 20.904 71.8776 20.568C71.5096 20.216 71.3256 19.784 71.3256 19.272C71.3256 18.76 71.5096 18.336 71.8776 18C72.2456 17.648 72.7016 17.472 73.2456 17.472C73.7896 17.472 74.2456 17.64 74.6136 17.976C74.9816 18.296 75.1656 18.704 75.1656 19.2C75.1656 19.728 74.9816 20.176 74.6136 20.544C74.2616 20.896 73.8056 21.072 73.2456 21.072ZM82.6311 36.168C81.5911 36.168 80.5751 36.032 79.5831 35.76C78.5911 35.488 77.7991 35.144 77.2071 34.728L78.3591 32.448C78.9351 32.832 79.6231 33.144 80.4231 33.384C81.2391 33.608 82.0391 33.72 82.8231 33.72C84.6151 33.72 85.5111 33.248 85.5111 32.304C85.5111 31.856 85.2791 31.544 84.8151 31.368C84.3671 31.192 83.6391 31.024 82.6311 30.864C81.5751 30.704 80.7111 30.52 80.0391 30.312C79.3831 30.104 78.8071 29.744 78.3111 29.232C77.8311 28.704 77.5911 27.976 77.5911 27.048C77.5911 25.832 78.0951 24.864 79.1031 24.144C80.1271 23.408 81.5031 23.04 83.2311 23.04C84.1111 23.04 84.9911 23.144 85.8711 23.352C86.7511 23.544 87.4711 23.808 88.0311 24.144L86.8791 26.424C85.7911 25.784 84.5671 25.464 83.2071 25.464C82.3271 25.464 81.6551 25.6 81.1911 25.872C80.7431 26.128 80.5191 26.472 80.5191 26.904C80.5191 27.384 80.7591 27.728 81.2391 27.936C81.7351 28.128 82.4951 28.312 83.5191 28.488C84.5431 28.648 85.3831 28.832 86.0391 29.04C86.6951 29.248 87.2551 29.6 87.7191 30.096C88.1991 30.592 88.4391 31.296 88.4391 32.208C88.4391 33.408 87.9191 34.368 86.8791 35.088C85.8391 35.808 84.4231 36.168 82.6311 36.168ZM98.7267 35.304C98.3747 35.592 97.9427 35.808 97.4307 35.952C96.9347 36.096 96.4067 36.168 95.8467 36.168C94.4387 36.168 93.3507 35.8 92.5827 35.064C91.8147 34.328 91.4307 33.256 91.4307 31.848V25.68H89.3187V23.28H91.4307V20.352H94.4307V23.28H97.8627V25.68H94.4307V31.776C94.4307 32.4 94.5827 32.88 94.8867 33.216C95.1907 33.536 95.6307 33.696 96.2067 33.696C96.8787 33.696 97.4387 33.52 97.8867 33.168L98.7267 35.304ZM106.091 23.04C107.979 23.04 109.419 23.496 110.411 24.408C111.419 25.304 111.923 26.664 111.923 28.488V36H109.091V34.44C108.723 35 108.195 35.432 107.507 35.736C106.835 36.024 106.019 36.168 105.059 36.168C104.099 36.168 103.259 36.008 102.539 35.688C101.819 35.352 101.259 34.896 100.859 34.32C100.475 33.728 100.283 33.064 100.283 32.328C100.283 31.176 100.707 30.256 101.555 29.568C102.419 28.864 103.771 28.512 105.611 28.512H108.923V28.32C108.923 27.424 108.651 26.736 108.107 26.256C107.579 25.776 106.787 25.536 105.731 25.536C105.011 25.536 104.299 25.648 103.595 25.872C102.907 26.096 102.323 26.408 101.843 26.808L100.667 24.624C101.339 24.112 102.147 23.72 103.091 23.448C104.035 23.176 105.035 23.04 106.091 23.04ZM105.683 33.984C106.435 33.984 107.099 33.816 107.675 33.48C108.267 33.128 108.683 32.632 108.923 31.992V30.504H105.827C104.099 30.504 103.235 31.072 103.235 32.208C103.235 32.752 103.451 33.184 103.883 33.504C104.315 33.824 104.915 33.984 105.683 33.984ZM121.005 30.504L118.773 32.616V36H115.773V18.192H118.773V28.944L124.989 23.184H128.589L123.237 28.56L129.093 36H125.445L121.005 30.504ZM142.539 29.664C142.539 29.872 142.523 30.168 142.491 30.552H132.435C132.611 31.496 133.067 32.248 133.803 32.808C134.555 33.352 135.483 33.624 136.587 33.624C137.995 33.624 139.155 33.16 140.067 32.232L141.675 34.08C141.099 34.768 140.371 35.288 139.491 35.64C138.611 35.992 137.619 36.168 136.515 36.168C135.107 36.168 133.867 35.888 132.795 35.328C131.723 34.768 130.891 33.992 130.299 33C129.723 31.992 129.435 30.856 129.435 29.592C129.435 28.344 129.715 27.224 130.275 26.232C130.851 25.224 131.643 24.44 132.651 23.88C133.659 23.32 134.795 23.04 136.059 23.04C137.307 23.04 138.419 23.32 139.395 23.88C140.387 24.424 141.155 25.2 141.699 26.208C142.259 27.2 142.539 28.352 142.539 29.664ZM136.059 25.44C135.099 25.44 134.283 25.728 133.611 26.304C132.955 26.864 132.555 27.616 132.411 28.56H139.683C139.555 27.632 139.163 26.88 138.507 26.304C137.851 25.728 137.035 25.44 136.059 25.44ZM149.381 36.168C148.341 36.168 147.325 36.032 146.333 35.76C145.341 35.488 144.549 35.144 143.957 34.728L145.109 32.448C145.685 32.832 146.373 33.144 147.173 33.384C147.989 33.608 148.789 33.72 149.573 33.72C151.365 33.72 152.261 33.248 152.261 32.304C152.261 31.856 152.029 31.544 151.565 31.368C151.117 31.192 150.389 31.024 149.381 30.864C148.325 30.704 147.461 30.52 146.789 30.312C146.133 30.104 145.557 29.744 145.061 29.232C144.581 28.704 144.341 27.976 144.341 27.048C144.341 25.832 144.845 24.864 145.853 24.144C146.877 23.408 148.253 23.04 149.981 23.04C150.861 23.04 151.741 23.144 152.621 23.352C153.501 23.544 154.221 23.808 154.781 24.144L153.629 26.424C152.541 25.784 151.317 25.464 149.957 25.464C149.077 25.464 148.405 25.6 147.941 25.872C147.493 26.128 147.269 26.472 147.269 26.904C147.269 27.384 147.509 27.728 147.989 27.936C148.485 28.128 149.245 28.312 150.269 28.488C151.293 28.648 152.133 28.832 152.789 29.04C153.445 29.248 154.005 29.6 154.469 30.096C154.949 30.592 155.189 31.296 155.189 32.208C155.189 33.408 154.669 34.368 153.629 35.088C152.589 35.808 151.173 36.168 149.381 36.168Z" fill="#75D9BB"/>
<path d="M163.086 40.824C161.821 40.824 160.861 40.576 160.205 40.08L161.069 37.848C161.517 38.184 162.101 38.352 162.822 38.352C163.382 38.352 163.806 38.176 164.094 37.824C164.398 37.488 164.55 36.984 164.55 36.312V23.184H167.55V36.24C167.55 37.664 167.158 38.784 166.374 39.6C165.59 40.416 164.494 40.824 163.086 40.824ZM166.038 21.072C165.494 21.072 165.038 20.904 164.67 20.568C164.302 20.216 164.118 19.784 164.118 19.272C164.118 18.76 164.302 18.336 164.67 18C165.038 17.648 165.494 17.472 166.038 17.472C166.582 17.472 167.038 17.64 167.406 17.976C167.774 18.296 167.958 18.704 167.958 19.2C167.958 19.728 167.774 20.176 167.406 20.544C167.054 20.896 166.598 21.072 166.038 21.072ZM177.244 36.168C175.948 36.168 174.78 35.888 173.74 35.328C172.7 34.768 171.884 33.992 171.292 33C170.716 31.992 170.428 30.856 170.428 29.592C170.428 28.328 170.716 27.2 171.292 26.208C171.884 25.216 172.7 24.44 173.74 23.88C174.78 23.32 175.948 23.04 177.244 23.04C178.556 23.04 179.732 23.32 180.772 23.88C181.812 24.44 182.62 25.216 183.196 26.208C183.788 27.2 184.084 28.328 184.084 29.592C184.084 30.856 183.788 31.992 183.196 33C182.62 33.992 181.812 34.768 180.772 35.328C179.732 35.888 178.556 36.168 177.244 36.168ZM177.244 33.6C178.348 33.6 179.26 33.232 179.98 32.496C180.7 31.76 181.06 30.792 181.06 29.592C181.06 28.392 180.7 27.424 179.98 26.688C179.26 25.952 178.348 25.584 177.244 25.584C176.14 25.584 175.228 25.952 174.508 26.688C173.804 27.424 173.452 28.392 173.452 29.592C173.452 30.792 173.804 31.76 174.508 32.496C175.228 33.232 176.14 33.6 177.244 33.6ZM199.36 23.184V36H196.504V34.368C196.024 34.944 195.424 35.392 194.704 35.712C193.984 36.016 193.208 36.168 192.376 36.168C190.664 36.168 189.312 35.696 188.32 34.752C187.344 33.792 186.856 32.376 186.856 30.504V23.184H189.856V30.096C189.856 31.248 190.112 32.112 190.624 32.688C191.152 33.248 191.896 33.528 192.856 33.528C193.928 33.528 194.776 33.2 195.4 32.544C196.04 31.872 196.36 30.912 196.36 29.664V23.184H199.36ZM206.144 25.056C207.008 23.712 208.528 23.04 210.704 23.04V25.896C210.448 25.848 210.216 25.824 210.008 25.824C208.84 25.824 207.928 26.168 207.272 26.856C206.616 27.528 206.288 28.504 206.288 29.784V36H203.288V23.184H206.144V25.056ZM220.521 23.04C222.137 23.04 223.433 23.512 224.409 24.456C225.385 25.4 225.873 26.8 225.873 28.656V36H222.873V29.04C222.873 27.92 222.609 27.08 222.081 26.52C221.553 25.944 220.801 25.656 219.825 25.656C218.721 25.656 217.849 25.992 217.209 26.664C216.569 27.32 216.249 28.272 216.249 29.52V36H213.249V23.184H216.105V24.84C216.601 24.248 217.225 23.8 217.977 23.496C218.729 23.192 219.577 23.04 220.521 23.04ZM234.575 23.04C236.463 23.04 237.903 23.496 238.895 24.408C239.903 25.304 240.407 26.664 240.407 28.488V36H237.575V34.44C237.207 35 236.679 35.432 235.991 35.736C235.319 36.024 234.503 36.168 233.543 36.168C232.583 36.168 231.743 36.008 231.023 35.688C230.303 35.352 229.743 34.896 229.343 34.32C228.959 33.728 228.767 33.064 228.767 32.328C228.767 31.176 229.191 30.256 230.039 29.568C230.903 28.864 232.255 28.512 234.095 28.512H237.407V28.32C237.407 27.424 237.135 26.736 236.591 26.256C236.063 25.776 235.271 25.536 234.215 25.536C233.495 25.536 232.783 25.648 232.079 25.872C231.391 26.096 230.807 26.408 230.327 26.808L229.151 24.624C229.823 24.112 230.631 23.72 231.575 23.448C232.519 23.176 233.519 23.04 234.575 23.04ZM234.167 33.984C234.919 33.984 235.583 33.816 236.159 33.48C236.751 33.128 237.167 32.632 237.407 31.992V30.504H234.311C232.583 30.504 231.719 31.072 231.719 32.208C231.719 32.752 231.935 33.184 232.367 33.504C232.799 33.824 233.399 33.984 234.167 33.984ZM244.257 18.192H247.257V36H244.257V18.192Z" fill="#E9C443"/>
</svg>
