<svg width="254" height="286" viewBox="0 0 254 286" fill="none" xmlns="http://www.w3.org/2000/svg">
<circle cx="132.816" cy="150.396" r="114.236" fill="#08AB5D"/>
<path d="M153.25 149.5C108.377 149.5 72 187.332 72 234H234.5C234.5 187.332 198.123 149.5 153.25 149.5Z" fill="#75D9BB"/>
<path d="M104.5 191.75V217.75C104.5 219.545 103.045 221 101.25 221C99.4548 221 97.9998 219.545 97.9998 217.75V175.5H117.5V204.75C117.5 206.545 116.045 208 114.25 208C112.455 208 111 206.545 111 204.75V191.75C111 189.955 109.545 188.5 107.75 188.5C105.955 188.5 104.5 189.955 104.5 191.75Z" fill="#AFF2DE"/>
<path d="M57.7126 36.0922C57.3217 32.9613 61.172 31.1659 63.3191 33.4779L174.98 153.717L78.0467 198.917L57.7126 36.0922Z" fill="#ECD582"/>
<path d="M189 175.5C178.23 175.5 169.5 184.23 169.5 195H208.5C208.5 184.23 199.77 175.5 189 175.5Z" fill="white"/>
<path d="M183.135 182.001C175.955 182.001 170.135 187.822 170.135 195.001H196.135C196.135 187.822 190.314 182.001 183.135 182.001Z" fill="#484848"/>
<circle cx="176" cy="162.5" r="13" fill="#75D9BB"/>
<circle cx="143.5" cy="169" r="6.5" fill="#75D9BB"/>
<circle cx="133.75" cy="172.25" r="9.75" fill="#75D9BB"/>
<circle cx="85" cy="201.5" r="13" fill="#75D9BB"/>
<path d="M150 175.5C139.23 175.5 130.5 184.23 130.5 195H169.5C169.5 184.23 160.77 175.5 150 175.5Z" fill="white"/>
<path d="M144.135 182.001C136.955 182.001 131.135 187.822 131.135 195.001H157.135C157.135 187.822 151.314 182.001 144.135 182.001Z" fill="#484848"/>
<path d="M192.25 221C133.017 221 39.4998 228.534 39.4998 240.5H254C254 228.534 251.482 221 192.25 221Z" fill="#AFF2DE"/>
<path d="M153.251 208.001C153.251 206.206 154.706 204.751 156.501 204.751C158.296 204.751 159.751 206.206 159.751 208.001H153.251ZM179.251 208.001C179.251 206.206 180.706 204.751 182.501 204.751C184.296 204.751 185.751 206.206 185.751 208.001H179.251ZM159.751 208.001L159.753 208.019C159.753 208.019 159.76 208.048 159.773 208.08C159.799 208.144 159.862 208.264 160.004 208.432C160.3 208.782 160.856 209.237 161.762 209.69C163.574 210.596 166.306 211.251 169.501 211.251V217.751C165.516 217.751 161.747 216.95 158.855 215.504C156.157 214.155 153.251 211.69 153.251 208.001H159.751ZM169.501 211.251C172.695 211.251 175.427 210.596 177.24 209.69C178.145 209.237 178.701 208.782 178.998 208.432C179.14 208.264 179.203 208.144 179.229 208.08C179.242 208.048 179.249 208.019 179.249 208.019L179.251 208.001H185.751C185.751 211.69 182.845 214.155 180.147 215.504C177.254 216.95 173.486 217.751 169.501 217.751V211.251Z" fill="#484848"/>
</svg>
