<svg width="32" height="32" viewBox="0 0 32 32" fill="none" xmlns="http://www.w3.org/2000/svg">
<path d="M21.2526 1.23167C21.2526 0.552038 21.9245 0 22.7552 0C23.5859 0 24.2578 0.552038 24.2578 1.23167V6.62707C24.2578 7.3067 23.5859 7.85874 22.7552 7.85874C21.9245 7.85874 21.2526 7.3067 21.2526 6.62707V1.23167Z" fill="#484848"/>
<path d="M7.71094 1.23167C7.71094 0.552038 8.38281 0 9.21354 0C10.0443 0 10.7161 0.552038 10.7161 1.23167V6.62707C10.7161 7.3067 10.0443 7.85874 9.21354 7.85874C8.38281 7.85874 7.71094 7.3067 7.71094 6.62707V1.23167Z" fill="#484848"/>
<path d="M17.7743 17.7778C17.7743 18.7596 16.9784 19.5556 15.9965 19.5556C15.0147 19.5556 14.2188 18.7596 14.2188 17.7778C14.2188 16.7959 15.0147 16 15.9965 16C16.9784 16 17.7743 16.7959 17.7743 17.7778Z" fill="#484848"/>
<path d="M23.1059 26.6669C24.0877 26.6669 24.8837 25.8709 24.8837 24.8891C24.8837 23.9073 24.0877 23.1113 23.1059 23.1113C22.1241 23.1113 21.3281 23.9073 21.3281 24.8891C21.3281 25.8709 22.1241 26.6669 23.1059 26.6669Z" fill="#484848"/>
<path d="M17.7743 24.8891C17.7743 25.8709 16.9784 26.6669 15.9965 26.6669C15.0147 26.6669 14.2188 25.8709 14.2188 24.8891C14.2188 23.9073 15.0147 23.1113 15.9965 23.1113C16.9784 23.1113 17.7743 23.9073 17.7743 24.8891Z" fill="#484848"/>
<path d="M8.88715 19.5556C9.86899 19.5556 10.6649 18.7596 10.6649 17.7778C10.6649 16.7959 9.86899 16 8.88715 16C7.90531 16 7.10938 16.7959 7.10938 17.7778C7.10938 18.7596 7.90531 19.5556 8.88715 19.5556Z" fill="#484848"/>
<path d="M10.6649 24.8891C10.6649 25.8709 9.86899 26.6669 8.88715 26.6669C7.90531 26.6669 7.10938 25.8709 7.10938 24.8891C7.10938 23.9073 7.90531 23.1113 8.88715 23.1113C9.86899 23.1113 10.6649 23.9073 10.6649 24.8891Z" fill="#484848"/>
<path d="M23.1059 19.5556C24.0877 19.5556 24.8837 18.7596 24.8837 17.7778C24.8837 16.7959 24.0877 16 23.1059 16C22.1241 16 21.3281 16.7959 21.3281 17.7778C21.3281 18.7596 22.1241 19.5556 23.1059 19.5556Z" fill="#484848"/>
<path fill-rule="evenodd" clip-rule="evenodd" d="M1.66667 11.8011H30.3333V5.59069C30.3333 5.38237 30.2474 5.19229 30.1094 5.05167C29.9714 4.91366 29.7812 4.82773 29.5703 4.82773H26.8229C26.362 4.82773 25.9896 4.45537 25.9896 3.99447C25.9896 3.53357 26.362 3.1612 26.8229 3.1612H29.5703C30.2396 3.1612 30.8464 3.43462 31.2865 3.87468C31.7266 4.31475 32 4.92147 32 5.59069V29.5705C32 30.2397 31.7266 30.8465 31.2865 31.2865C30.8464 31.7266 30.2396 32 29.5703 32H2.42969C1.76042 32 1.15365 31.7266 0.713542 31.2865C0.273438 30.8438 0 30.2371 0 29.5679V5.59069C0 4.92147 0.273438 4.31475 0.713542 3.87468C1.15365 3.43462 1.76042 3.1612 2.42969 3.1612H5.36458C5.82552 3.1612 6.19792 3.53357 6.19792 3.99447C6.19792 4.45537 5.82552 4.82773 5.36458 4.82773H2.42969C2.22135 4.82773 2.03125 4.91366 1.89062 5.05167C1.7526 5.18968 1.66667 5.37977 1.66667 5.59069V11.8011ZM30.3333 13.4703H1.66667V29.5679C1.66667 29.7762 1.7526 29.9663 1.89062 30.1069C2.02865 30.2449 2.21875 30.3309 2.42969 30.3309H29.5703C29.7786 30.3309 29.9688 30.2449 30.1094 30.1069C30.2474 29.9689 30.3333 29.7788 30.3333 29.5679V13.4703Z" fill="#484848"/>
<path d="M13.1328 4.82773C12.6719 4.82773 12.2995 4.45537 12.2995 3.99447C12.2995 3.53357 12.6719 3.1612 13.1328 3.1612H18.7292C19.1901 3.1612 19.5625 3.53357 19.5625 3.99447C19.5625 4.45537 19.1901 4.82773 18.7292 4.82773H13.1328Z" fill="#484848"/>
</svg>
