<svg width="32" height="32" viewBox="0 0 32 32" fill="none" xmlns="http://www.w3.org/2000/svg">
<path d="M0.646649 9.4009H1.81849V6.83326C1.81849 6.4765 2.10755 6.18744 2.46431 6.18744H3.61272V4.64582C3.61272 4.28905 3.90177 4 4.25853 4H14.7426C15.0994 4 15.3885 4.28905 15.3885 4.64582V6.18744H29.5287C29.8855 6.18744 30.1745 6.4765 30.1745 6.83326V9.4009H31.3542C31.7109 9.4009 32 9.68996 32 10.0467C32 10.0936 31.9948 10.1405 31.9844 10.1821L29.724 26.7989C29.6511 27.3405 29.4141 27.8431 29.0496 28.2077C28.6902 28.5671 28.2136 28.791 27.6538 28.791H3.82886C3.26637 28.791 2.77941 28.5645 2.41483 28.2025C2.04765 27.8353 1.81328 27.3301 1.75339 26.7807L0.00343621 10.1144C-0.0330212 9.76027 0.224785 9.44257 0.578942 9.40611C0.602379 9.40351 0.623212 9.40351 0.646649 9.4009ZM2.46431 10.6951H1.36278L3.03721 26.6505C3.06325 26.9057 3.16742 27.1322 3.32366 27.2911C3.45387 27.4213 3.62834 27.502 3.82625 27.502H27.6538C27.8491 27.502 28.0131 27.4239 28.1407 27.2963C28.3022 27.1348 28.4089 26.8978 28.4454 26.6322L30.612 10.6977H2.46431V10.6951ZM3.11013 7.48168V9.3983L28.8829 9.12487V7.48168H14.7426C14.3859 7.48168 14.0968 7.19263 14.0968 6.83586V5.29424H4.90435V6.83586C4.90435 7.19263 4.6153 7.48168 4.25853 7.48168H3.11013Z" fill="#484848"/>
</svg>
