<svg width="24" height="24" viewBox="0 0 24 24" fill="none" xmlns="http://www.w3.org/2000/svg">
<path fill-rule="evenodd" clip-rule="evenodd" d="M17.0025 13.6978L6.71959 2.62491C5.85812 1.69727 4.31323 2.41765 4.47011 3.67386L6.38969 19.045C6.33801 19.1348 6.29632 19.2132 6.26508 19.2744C6.24454 19.3147 6.2283 19.348 6.21648 19.3728L6.20203 19.4036L6.19729 19.414L6.19554 19.4178L6.19435 19.4205C6.19428 19.4206 6.19421 19.4208 7.10693 19.8294L6.19435 19.4205L6.16442 19.4873L6.1446 19.5575C6.00748 20.0429 5.90929 20.5449 5.85357 21.0597H1.88977V23.0597H5.79968V23.0614H23V22.0614C23 18.5283 21.0091 15.4575 18.0979 14.0203L18.0647 14.0039L18.0303 13.99L17.6552 14.9169C18.0303 13.99 18.0304 13.99 18.0303 13.99L18.0293 13.9895L18.0279 13.989L18.0245 13.9876L18.0147 13.9837L17.9836 13.9716C17.958 13.9618 17.9227 13.9485 17.8796 13.933C17.7941 13.9023 17.6745 13.8615 17.5365 13.8212C17.4011 13.7817 17.2124 13.7316 17.0025 13.6978ZM14.764 14.2263L6.72201 5.5666L8.18678 17.2958C8.22545 17.2757 8.26053 17.2583 8.29135 17.2435C8.33021 17.2248 8.36266 17.21 8.38744 17.1991L8.40608 17.1911L14.764 14.2263ZM16.5615 15.6601C16.6141 15.6576 16.7647 15.6794 16.9759 15.7411C17.0659 15.7673 17.1458 15.7945 17.2028 15.815C17.2219 15.8219 17.2381 15.8279 17.2508 15.8327C19.1849 16.8036 20.6097 18.7396 20.9314 21.0614H16.9758C17.0627 21.0298 17.147 20.9939 17.2278 20.9535C17.5542 20.7903 18.1368 20.3798 18.1368 19.6291C18.1368 19.0768 17.6891 18.6291 17.1368 18.6291C16.7381 18.6291 16.3939 18.8624 16.2333 19.2C16.159 19.2197 16.0532 19.2371 15.9208 19.2371C15.7883 19.2371 15.6825 19.2197 15.6083 19.2C15.4477 18.8624 15.1035 18.6291 14.7047 18.6291C14.1525 18.6291 13.7047 19.0768 13.7047 19.6291C13.7047 20.3798 14.2873 20.7903 14.6137 20.9535C14.6946 20.9939 14.7788 21.0298 14.8657 21.0614H7.8683C7.90981 20.7618 7.96967 20.4687 8.04658 20.1834C8.07013 20.1372 8.1069 20.0685 8.15521 19.9881C8.25562 19.8208 8.38867 19.6316 8.53869 19.4816C8.69004 19.3302 8.86089 19.2121 8.99981 19.1307C9.0675 19.0911 9.12308 19.0628 9.15843 19.0458C9.17598 19.0373 9.18816 19.0318 9.1939 19.0293L9.19581 19.0285L9.21376 19.0212L15.8044 15.9479L15.8297 15.9341L15.8307 15.9336L15.8455 15.9258C15.8592 15.9187 15.881 15.9076 15.9093 15.8936C15.9666 15.8654 16.0471 15.8277 16.1382 15.7899C16.3521 15.7012 16.5066 15.6626 16.5615 15.6601ZM15.4986 19.1594C15.4985 19.1594 15.4994 19.16 15.5013 19.161L15.4986 19.1594ZM16.343 19.1594L16.3403 19.161C16.3421 19.16 16.343 19.1594 16.343 19.1594Z" fill="#484848"/>
</svg>
