<svg width="113" height="124" viewBox="0 0 113 124" fill="none" xmlns="http://www.w3.org/2000/svg">
    <path d="M68.0264 64.8181C48.0424 64.8181 31.8422 81.2208 31.8422 101.454H104.211C104.211 81.2208 88.0104 64.8181 68.0264 64.8181Z"
          fill="#75D9BB"/>
    <path d="M45.3158 95.8182H44.421C43.8687 95.8182 43.421 95.3705 43.421 94.8182V76.0909H52.1052V89.1818C52.1052 89.7341 51.6575 90.1818 51.1052 90.1818H50.2105C49.6582 90.1818 49.2105 89.7341 49.2105 89.1818V82.7273C49.2105 82.175 48.7628 81.7273 48.2105 81.7273H47.3158C46.7635 81.7273 46.3158 82.175 46.3158 82.7273V94.8182C46.3158 95.3705 45.868 95.8182 45.3158 95.8182Z"
          fill="#AFF2DE"/>
    <path d="M24.9235 11.3146L77.7037 66.6464L34.535 86.244L24.9235 11.3146Z" fill="#ECD582"/>
    <path d="M83.9474 76.0909C79.1512 76.0909 75.2632 79.8762 75.2632 84.5455H92.6316C92.6316 79.8762 88.7435 76.0909 83.9474 76.0909Z"
          fill="white"/>
    <path d="M83.9474 78.9092C80.75 78.9092 78.158 81.4327 78.158 84.5455H89.7369C89.7369 81.4327 87.1449 78.9092 83.9474 78.9092Z"
          fill="#484848"/>
    <ellipse cx="78.1579" cy="70.4545" rx="5.78947" ry="5.63637" fill="#75D9BB"/>
    <ellipse cx="63.6842" cy="73.2728" rx="2.89474" ry="2.81818" fill="#75D9BB"/>
    <ellipse cx="59.3421" cy="74.6819" rx="4.34211" ry="4.22727" fill="#75D9BB"/>
    <ellipse cx="37.6316" cy="87.3637" rx="5.78947" ry="5.63636" fill="#75D9BB"/>
    <path d="M66.579 76.0909C61.7828 76.0909 57.8948 79.8762 57.8948 84.5455H75.2632C75.2632 79.8762 71.3751 76.0909 66.579 76.0909Z"
          fill="white"/>
    <path d="M66.579 78.9092C63.3816 78.9092 60.7896 81.4327 60.7896 84.5455H72.3685C72.3685 81.4327 69.7765 78.9092 66.579 78.9092Z"
          fill="#484848"/>
    <path d="M85.3947 95.8181C59.0159 95.8181 17.3684 99.0845 17.3684 104.273H112.895C112.895 99.0845 111.774 95.8181 85.3947 95.8181Z"
          fill="#AFF2DE"/>
    <path d="M68.9736 90.1818C68.9736 89.9057 69.1975 89.6818 69.4736 89.6818C69.7498 89.6818 69.9736 89.9057 69.9736 90.1818H68.9736ZM80.5526 90.1818C80.5526 89.9057 80.7764 89.6818 81.0526 89.6818C81.3287 89.6818 81.5526 89.9057 81.5526 90.1818H80.5526ZM69.9736 90.1818C69.9736 90.6616 70.3885 91.2384 71.3882 91.725C72.354 92.1951 73.7234 92.5 75.2631 92.5V93.5C73.6054 93.5 72.0801 93.174 70.9505 92.6241C69.8548 92.0908 68.9736 91.2585 68.9736 90.1818H69.9736ZM75.2631 92.5C76.8029 92.5 78.1722 92.1951 79.138 91.725C80.1377 91.2384 80.5526 90.6616 80.5526 90.1818H81.5526C81.5526 91.2585 80.6714 92.0908 79.5757 92.6241C78.4462 93.174 76.9208 93.5 75.2631 93.5V92.5Z"
          fill="#484848"/>
</svg>
