<svg width="53" height="104" viewBox="0 0 53 104" fill="none" xmlns="http://www.w3.org/2000/svg">
<circle cx="26.5" cy="26.5" r="26.5" fill="#75D9BB"/>
<path d="M25.2994 99.7539C25.6755 100.92 27.3251 100.92 27.7013 99.7539L47.2643 39.1191H5.73633L25.2994 99.7539Z" fill="#ECD582"/>
<path d="M20.1908 46.6905V56.7857C20.1908 57.4826 19.6258 58.0476 18.9289 58.0476C18.232 58.0476 17.667 57.4826 17.667 56.7857V39.119H25.2384V51.7381C25.2384 52.435 24.6734 53 23.9765 53C23.2796 53 22.7146 52.435 22.7146 51.7381V46.6905C22.7146 45.9935 22.1496 45.4285 21.4527 45.4285C20.7558 45.4285 20.1908 45.9935 20.1908 46.6905Z" fill="#AFF2DE"/>
<circle cx="5.04762" cy="40.3809" r="5.04762" fill="#75D9BB"/>
<circle cx="45.4285" cy="40.3809" r="5.04762" fill="#75D9BB"/>
<circle cx="40.3812" cy="37.8571" r="2.52381" fill="#75D9BB"/>
<circle cx="15.1427" cy="40.3809" r="7.57143" fill="#75D9BB"/>
<path d="M35.3331 7.57141C31.1516 7.57141 27.7617 10.9613 27.7617 15.1428H42.9046C42.9046 10.9613 39.5147 7.57141 35.3331 7.57141Z" fill="white"/>
<path d="M35.3328 10.0952C32.5451 10.0952 30.2852 12.3551 30.2852 15.1428H40.3804C40.3804 12.3551 38.1205 10.0952 35.3328 10.0952Z" fill="#484848"/>
<path d="M20.1906 7.57141C16.009 7.57141 12.6191 10.9613 12.6191 15.1428H27.762C27.762 10.9613 24.3722 7.57141 20.1906 7.57141Z" fill="white"/>
<path d="M20.1902 10.0952C17.4025 10.0952 15.1426 12.3551 15.1426 15.1428H25.2378C25.2378 12.3551 22.9779 10.0952 20.1902 10.0952Z" fill="#484848"/>
<path d="M27.7616 32.8095C20.7923 32.8095 15.1426 27.1598 15.1426 20.1905H40.3807C40.3807 27.1598 34.7309 32.8095 27.7616 32.8095Z" fill="white"/>
</svg>
