<svg width="53" height="104" viewBox="0 0 53 104" fill="none" xmlns="http://www.w3.org/2000/svg">
    <ellipse cx="26.5" cy="26.6341" rx="26.5" ry="26.6341" fill="#75D9BB"/>
    <path d="M26.5 104L47.264 39.3171H5.736L26.5 104Z" fill="#ECD582"/>
    <path d="M19.1904 58.3414H18.6666C18.1143 58.3414 17.6666 57.8937 17.6666 57.3414V39.317H25.2381V52.2682C25.2381 52.8205 24.7903 53.2682 24.2381 53.2682H23.7142C23.162 53.2682 22.7142 52.8205 22.7142 52.2682V46.6585C22.7142 46.1062 22.2665 45.6585 21.7142 45.6585H21.1904C20.6382 45.6585 20.1904 46.1062 20.1904 46.6585V57.3414C20.1904 57.8937 19.7427 58.3414 19.1904 58.3414Z"
          fill="#AFF2DE"/>
    <ellipse cx="5.04762" cy="40.5854" rx="5.04762" ry="5.07317" fill="#75D9BB"/>
    <ellipse cx="45.4286" cy="40.5854" rx="5.04762" ry="5.07317" fill="#75D9BB"/>
    <ellipse cx="40.381" cy="38.0488" rx="2.52381" ry="2.53658" fill="#75D9BB"/>
    <ellipse cx="15.1428" cy="40.5853" rx="7.57143" ry="7.60976" fill="#75D9BB"/>
    <path d="M35.3334 7.60974C31.1518 7.60974 27.762 11.0167 27.762 15.2195H42.9048C42.9048 11.0167 39.515 7.60974 35.3334 7.60974Z"
          fill="white"/>
    <path d="M35.3334 10.1464C32.5457 10.1464 30.2858 12.4177 30.2858 15.2195H40.381C40.381 12.4177 38.1211 10.1464 35.3334 10.1464Z"
          fill="#484848"/>
    <path d="M20.1904 7.60974C16.0089 7.60974 12.619 11.0167 12.619 15.2195H27.7619C27.7619 11.0167 24.372 7.60974 20.1904 7.60974Z"
          fill="white"/>
    <path d="M20.1904 10.1464C17.4027 10.1464 15.1428 12.4177 15.1428 15.2195H25.2381C25.2381 12.4177 22.9782 10.1464 20.1904 10.1464Z"
          fill="#484848"/>
    <path d="M27.7619 32.9756C20.7926 32.9756 15.1428 27.2972 15.1428 20.2927H40.3809C40.3809 27.2972 34.7312 32.9756 27.7619 32.9756Z"
          fill="white"/>
</svg>
