<svg width="100" height="116" viewBox="0 0 100 116" fill="none" xmlns="http://www.w3.org/2000/svg">
<path d="M61.9545 60.6364C43.7543 60.6364 29 75.9808 29 94.9091H94.9091C94.9091 75.9808 80.1548 60.6364 61.9545 60.6364Z" fill="#75D9BB"/>
<path d="M42.1823 77.7727V88.3182C42.1823 89.0462 41.5921 89.6364 40.8641 89.6364C40.1361 89.6364 39.5459 89.0462 39.5459 88.3182V71.1818H47.455V83.0455C47.455 83.7735 46.8648 84.3636 46.1368 84.3636C45.4088 84.3636 44.8186 83.7735 44.8186 83.0455V77.7727C44.8186 77.0447 44.2285 76.4546 43.5004 76.4546C42.7724 76.4546 42.1823 77.0447 42.1823 77.7727Z" fill="#AFF2DE"/>
<path d="M23.2051 14.6388C23.0465 13.3689 24.6082 12.6407 25.4791 13.5784L70.7681 62.3466L31.4525 80.6798L23.2051 14.6388Z" fill="#ECD582"/>
<path d="M76.455 71.1818C72.0869 71.1818 68.5459 74.7228 68.5459 79.0909H84.3641C84.3641 74.7228 80.8231 71.1818 76.455 71.1818Z" fill="white"/>
<path d="M76.4553 73.8188C73.5433 73.8188 71.1826 76.1795 71.1826 79.0915H81.7281C81.7281 76.1795 79.3674 73.8188 76.4553 73.8188Z" fill="#484848"/>
<circle cx="71.1819" cy="65.9091" r="5.27273" fill="#75D9BB"/>
<circle cx="57.9996" cy="68.5454" r="2.63636" fill="#75D9BB"/>
<circle cx="54.0454" cy="69.8636" r="3.95455" fill="#75D9BB"/>
<circle cx="34.2727" cy="81.7273" r="5.27273" fill="#75D9BB"/>
<path d="M60.6366 71.1818C56.2686 71.1818 52.7275 74.7228 52.7275 79.0909H68.5457C68.5457 74.7228 65.0047 71.1818 60.6366 71.1818Z" fill="white"/>
<path d="M60.637 73.8188C57.7249 73.8188 55.3643 76.1795 55.3643 79.0915H65.9097C65.9097 76.1795 63.549 73.8188 60.637 73.8188Z" fill="#484848"/>
<path d="M77.7729 89.6364C53.7485 89.6364 15.8184 92.692 15.8184 97.5454H102.818C102.818 92.692 101.797 89.6364 77.7729 89.6364Z" fill="#AFF2DE"/>
<path d="M61.9551 84.364C61.9551 83.6359 62.5452 83.0458 63.2733 83.0458C64.0013 83.0458 64.5914 83.6359 64.5914 84.364H61.9551ZM72.5005 84.364C72.5005 83.6359 73.0907 83.0458 73.8187 83.0458C74.5467 83.0458 75.1369 83.6359 75.1369 84.364H72.5005ZM64.5914 84.364L64.5923 84.3711C64.5923 84.3711 64.5951 84.3832 64.6004 84.396C64.611 84.422 64.6365 84.4708 64.694 84.5388C64.8142 84.6809 65.0399 84.8655 65.4071 85.0491C66.1423 85.4167 67.2502 85.6821 68.546 85.6821V88.3185C66.9297 88.3185 65.4013 87.9937 64.2281 87.4072C63.1338 86.86 61.9551 85.8603 61.9551 84.364H64.5914ZM68.546 85.6821C69.8417 85.6821 70.9497 85.4167 71.6849 85.0491C72.0521 84.8655 72.2777 84.6809 72.398 84.5388C72.4555 84.4708 72.481 84.422 72.4916 84.396C72.4969 84.3832 72.4997 84.3711 72.4997 84.3711L72.5005 84.364H75.1369C75.1369 85.8603 73.9582 86.86 72.8639 87.4072C71.6907 87.9937 70.1623 88.3185 68.546 88.3185V85.6821Z" fill="#484848"/>
</svg>
