<svg width="32" height="32" viewBox="0 0 32 32" fill="none" xmlns="http://www.w3.org/2000/svg">
<path d="M17.3657 30.9835C16.6893 31.6612 15.7958 32 14.8991 32C14.0024 32 13.1088 31.6612 12.4324 30.9835L1.01458 19.5467C0.338192 18.8659 0 17.9706 0 17.0722C0 16.1738 0.338192 15.2785 1.01458 14.6009L14.1048 1.48545C14.3034 1.28649 14.5578 1.18702 14.8184 1.1808L30.8872 0.00261861C31.4612 -0.0377939 31.9576 0.394309 31.998 0.96941C32.0011 1.02847 32.0011 1.08443 31.9949 1.14039L30.8965 17.0567C30.8779 17.3178 30.7662 17.551 30.5956 17.7251L17.3657 30.9835ZM27.7132 7.31417C27.7256 7.75249 27.6635 8.15973 27.5239 8.53898C27.3812 8.92135 27.164 9.27263 26.8692 9.59282L26.8661 9.59593C26.5745 9.91301 26.2456 10.1586 25.8733 10.3327C25.4978 10.5099 25.0945 10.6125 24.6601 10.6373C24.6229 10.6404 24.5857 10.6404 24.5484 10.6373C24.1482 10.6404 23.7697 10.5752 23.4159 10.4384H23.4128V10.4415C23.0312 10.2954 22.6806 10.0747 22.361 9.77623C22.3424 9.75758 22.3238 9.73892 22.3083 9.72027C22.0166 9.43428 21.7901 9.11098 21.6288 8.7597C21.4613 8.38977 21.3682 7.99497 21.3527 7.5753H21.3496C21.3247 7.14009 21.3806 6.72664 21.5233 6.33806C21.6629 5.95258 21.8801 5.59509 22.1811 5.26868L22.1842 5.26557C22.482 4.94227 22.8171 4.69358 23.1894 4.51949C23.5618 4.34852 23.9651 4.25215 24.4026 4.23971C24.8463 4.22417 25.2589 4.28945 25.6437 4.43245C26.0315 4.57856 26.3883 4.80238 26.711 5.10392C27.0244 5.39924 27.2695 5.73498 27.4401 6.10802C27.6108 6.48105 27.6976 6.88518 27.7132 7.31417ZM25.895 7.9359C25.9601 7.76182 25.9881 7.5753 25.9819 7.37635C25.9757 7.17428 25.9353 6.99087 25.8609 6.82611C25.7864 6.66136 25.6716 6.50592 25.5196 6.36293C25.3706 6.22304 25.2093 6.12045 25.0386 6.05828C24.8618 5.993 24.6694 5.96191 24.4647 5.97123C24.263 5.97745 24.083 6.01787 23.9155 6.09558C23.751 6.1733 23.5959 6.28832 23.4563 6.44064C23.3167 6.59297 23.2174 6.75462 23.1553 6.9287C23.0964 7.09346 23.0715 7.27687 23.084 7.47272H23.0809V7.49448C23.0871 7.69965 23.1274 7.88306 23.2019 8.04782C23.2701 8.20014 23.3725 8.34625 23.509 8.47992C23.5214 8.48925 23.5307 8.49857 23.5432 8.5079C23.6952 8.6509 23.8565 8.75348 24.0303 8.81876C24.1823 8.87783 24.3467 8.9058 24.5205 8.9058C24.5329 8.9058 24.5453 8.9027 24.5577 8.9027C24.778 8.89026 24.9704 8.84363 25.1348 8.76591C25.3024 8.6882 25.4544 8.57318 25.5909 8.42086L25.5971 8.41464C25.7305 8.26853 25.8329 8.10688 25.895 7.9359ZM14.8991 29.9203C15.259 29.9203 15.6189 29.7835 15.895 29.5069L28.8518 16.5251L29.8416 2.16935L15.3055 3.23251L2.48835 16.0775C2.21221 16.3541 2.07569 16.7147 2.07569 17.0722C2.07569 17.4328 2.21221 17.7934 2.48835 18.0701L13.9031 29.5069C14.1793 29.7835 14.5392 29.9203 14.8991 29.9203Z" fill="#484848"/>
</svg>
