<svg width="154" height="172" viewBox="0 0 154 172" fill="none" xmlns="http://www.w3.org/2000/svg">
<circle cx="80.4467" cy="90.6127" r="68.8261" fill="white"/>
<path d="M134.163 91.5941L141.183 96.8014L132.805 99.2935L82.7588 90.469C81.0075 87.968 81.6153 84.5209 84.1164 82.7696L134.163 91.5941Z" fill="#94A3B8"/>
<path d="M134.163 91.5941L141.183 96.8014L132.805 99.2935M134.163 91.5941L132.805 99.2935M134.163 91.5941L84.1164 82.7696V82.7696C81.6153 84.5209 81.0075 87.968 82.7588 90.469V90.469L132.805 99.2935" stroke="#94A3B8" stroke-width="3.90909"/>
<path d="M134.162 91.5943L141.183 96.8017L132.805 99.2937L130.88 98.9543C130.096 96.3172 130.599 93.4647 132.238 91.2549L134.162 91.5943Z" fill="#64748B"/>
<path d="M134.162 91.5943L141.183 96.8017L132.805 99.2937M134.162 91.5943L132.805 99.2937M134.162 91.5943L132.238 91.2549V91.2549C130.599 93.4647 130.096 96.3172 130.88 98.9543V98.9543L132.805 99.2937" stroke="#64748B" stroke-width="3.90909"/>
<path d="M138.012 92.273L145.033 97.4804L136.655 99.9725C134.903 97.4714 135.511 94.0243 138.012 92.273Z" fill="#334155" stroke="#334155" stroke-width="0.43"/>
<path d="M92.5909 89.9092C65.6042 89.9092 43.7272 112.661 43.7272 140.727H141.455C141.455 112.661 119.578 89.9092 92.5909 89.9092Z" fill="#75D9BB"/>
<path d="M63.2726 115.318V130.955C63.2726 132.034 62.3976 132.909 61.3181 132.909C60.2386 132.909 59.3636 132.034 59.3636 130.955V105.545H71.0908V123.136C71.0908 124.216 70.2157 125.091 69.1363 125.091C68.0568 125.091 67.1817 124.216 67.1817 123.136V115.318C67.1817 114.239 66.3067 113.364 65.2272 113.364C64.1477 113.364 63.2726 114.239 63.2726 115.318Z" fill="#AFF2DE"/>
<path d="M35.1351 21.7061C34.9 19.8232 37.2155 18.7434 38.5068 20.1339L105.66 92.4453L47.3639 119.629L35.1351 21.7061Z" fill="#ECD582"/>
<path d="M114.091 105.545C107.614 105.545 102.364 110.796 102.364 117.273H125.818C125.818 110.796 120.568 105.545 114.091 105.545Z" fill="white"/>
<path d="M110.182 109.455C105.864 109.455 102.364 112.955 102.364 117.273H118C118 112.955 114.5 109.455 110.182 109.455Z" fill="#484848"/>
<circle cx="106.273" cy="97.7274" r="7.81818" fill="#75D9BB"/>
<circle cx="86.7273" cy="101.636" r="3.90909" fill="#75D9BB"/>
<circle cx="80.8636" cy="103.591" r="5.86364" fill="#75D9BB"/>
<circle cx="51.5454" cy="121.182" r="7.81818" fill="#75D9BB"/>
<path d="M90.6364 105.545C84.1596 105.545 78.9091 110.796 78.9091 117.273H102.364C102.364 110.796 97.1132 105.545 90.6364 105.545Z" fill="white"/>
<path d="M86.7273 109.455C82.4094 109.455 78.9091 112.955 78.9091 117.273H94.5454C94.5454 112.955 91.0451 109.455 86.7273 109.455Z" fill="#484848"/>
<path d="M116.045 132.909C80.4231 132.909 24.1818 137.44 24.1818 144.636H153.182C153.182 137.44 151.668 132.909 116.045 132.909Z" fill="#AFF2DE"/>
<g clip-path="url(#clip0_999:18402)">
<path d="M123.864 103.591H112.136C107.818 103.591 104.318 107.091 104.318 111.409C104.318 115.727 107.818 119.227 112.136 119.227H123.864C128.182 119.227 131.682 115.727 131.682 111.409C131.682 107.091 128.182 103.591 123.864 103.591Z" stroke="#0F172A" stroke-width="3.90909"/>
<path d="M96.4999 103.591H84.7726C80.4548 103.591 76.9545 107.091 76.9545 111.409C76.9545 115.727 80.4548 119.227 84.7726 119.227H96.4999C100.818 119.227 104.318 115.727 104.318 111.409C104.318 107.091 100.818 103.591 96.4999 103.591Z" stroke="#0F172A" stroke-width="3.90909"/>
<path d="M76.5387 110.876L49.0583 104.006" stroke="#0F172A" stroke-width="3.90909" stroke-linecap="round"/>
</g>
<path d="M92.4403 126.123C92.3275 125.049 93.1063 124.088 94.1798 123.975C95.2534 123.862 96.2151 124.641 96.328 125.714L92.4403 126.123ZM107.991 124.489C107.878 123.415 108.657 122.453 109.731 122.34C110.804 122.228 111.766 123.006 111.879 124.08L107.991 124.489ZM96.328 125.714L96.3303 125.725C96.3303 125.725 96.3364 125.742 96.3461 125.76C96.3658 125.797 96.4109 125.865 96.5063 125.956C96.7056 126.147 97.067 126.385 97.637 126.598C98.7781 127.027 100.453 127.246 102.364 127.045L102.772 130.933C100.389 131.184 98.0847 130.942 96.2638 130.258C94.5653 129.621 92.6722 128.33 92.4403 126.123L96.328 125.714ZM102.364 127.045C104.275 126.845 105.867 126.281 106.894 125.625C107.407 125.298 107.712 124.991 107.867 124.762C107.941 124.653 107.971 124.577 107.983 124.537C107.989 124.517 107.991 124.499 107.991 124.499L107.991 124.489L111.879 124.08C112.111 126.286 110.527 127.943 108.998 128.92C107.359 129.967 105.156 130.683 102.772 130.933L102.364 127.045Z" fill="#484848"/>
<defs>
<clipPath id="clip0_999:18402">
<rect width="89.9091" height="19.5455" fill="white" transform="translate(43.7272 101.636)"/>
</clipPath>
</defs>
</svg>
