<svg width="199" height="174" viewBox="0 0 199 174" fill="none" xmlns="http://www.w3.org/2000/svg">
<circle cx="81" cy="92.2598" r="69.5" fill="#FBF5E2"/>
<path d="M92.62 90.9199C65.558 90.9199 43.62 113.735 43.62 141.88H141.62C141.62 113.735 119.682 90.9199 92.62 90.9199Z" fill="#75D9BB"/>
<path d="M63.2199 116.4V132.08C63.2199 133.162 62.3424 134.04 61.2599 134.04C60.1774 134.04 59.2999 133.162 59.2999 132.08V106.6H71.0599V124.24C71.0599 125.322 70.1824 126.2 69.0999 126.2C68.0174 126.2 67.1399 125.322 67.1399 124.24V116.4C67.1399 115.317 66.2624 114.44 65.1799 114.44C64.0974 114.44 63.2199 115.317 63.2199 116.4Z" fill="#AFF2DE"/>
<path d="M35.0037 22.5263C34.7679 20.6381 37.0899 19.5553 38.3848 20.9496L105.725 93.4629L47.2666 120.722L35.0037 22.5263Z" fill="#ECD582"/>
<path d="M114.18 106.6C107.685 106.6 102.42 111.865 102.42 118.36H125.94C125.94 111.865 120.675 106.6 114.18 106.6Z" fill="white"/>
<path d="M118.1 110.52C113.77 110.52 110.26 114.03 110.26 118.36H125.94C125.94 114.03 122.43 110.52 118.1 110.52Z" fill="#484848"/>
<circle cx="106.34" cy="98.7599" r="7.84" fill="#75D9BB"/>
<circle cx="86.7399" cy="102.68" r="3.92" fill="#75D9BB"/>
<circle cx="80.86" cy="104.64" r="5.88" fill="#75D9BB"/>
<circle cx="51.46" cy="122.28" r="7.84" fill="#75D9BB"/>
<path d="M90.66 106.6C84.1652 106.6 78.9 111.865 78.9 118.36H102.42C102.42 111.865 97.1549 106.6 90.66 106.6Z" fill="white"/>
<path d="M94.58 110.52C90.2501 110.52 86.74 114.03 86.74 118.36H102.42C102.42 114.03 98.9099 110.52 94.58 110.52Z" fill="#484848"/>
<path d="M116.14 134.04C80.4182 134.04 24.02 138.583 24.02 145.8H153.38C153.38 138.583 151.862 134.04 116.14 134.04Z" fill="#AFF2DE"/>
<path d="M92.4689 127.235C92.3558 126.158 93.1368 125.194 94.2133 125.081C95.2898 124.968 96.2543 125.749 96.3674 126.825L92.4689 127.235ZM108.063 125.596C107.95 124.519 108.731 123.555 109.807 123.442C110.884 123.329 111.848 124.11 111.962 125.186L108.063 125.596ZM96.3674 126.825L96.3698 126.836C96.3698 126.836 96.3758 126.853 96.3856 126.871C96.4054 126.908 96.4506 126.976 96.5463 127.068C96.7462 127.259 97.1085 127.497 97.6801 127.712C98.8244 128.141 100.504 128.361 102.42 128.16L102.83 132.058C100.44 132.31 98.1291 132.067 96.3031 131.382C94.5999 130.743 92.7015 129.448 92.4689 127.235L96.3674 126.825ZM102.42 128.16C104.336 127.958 105.933 127.394 106.963 126.736C107.478 126.407 107.783 126.099 107.939 125.87C108.013 125.761 108.043 125.685 108.055 125.645C108.061 125.625 108.063 125.607 108.063 125.607L108.063 125.596L111.962 125.186C112.194 127.399 110.606 129.06 109.073 130.04C107.43 131.089 105.22 131.807 102.83 132.058L102.42 128.16Z" fill="#484848"/>
<g clip-path="url(#clip0_1012:11733)">
<circle cx="160.5" cy="98.7598" r="28" fill="#FBF5E2"/>
<path d="M133.658 120.778L119.643 134.791C118.111 136.322 118.111 138.805 119.643 140.337C121.174 141.869 123.658 141.868 125.189 140.337L139.201 126.321C145.447 131.328 153.215 134.051 161.22 134.039C180.695 134.039 196.5 118.234 196.5 98.7595C196.5 79.2849 180.695 63.4795 161.22 63.4795C141.745 63.4795 125.94 79.2849 125.94 98.7595C125.929 106.764 128.652 114.533 133.658 120.778ZM141.522 117.869C136.547 112.753 133.769 105.896 133.78 98.7595C133.78 83.5969 146.061 71.3195 161.22 71.3195C176.383 71.3195 188.66 83.5969 188.66 98.7595C188.66 113.918 176.383 126.199 161.22 126.199C154.084 126.211 147.226 123.432 142.11 118.457L141.522 117.869Z" fill="#475569"/>
<circle cx="129.86" cy="137.96" r="7.84" fill="#75D9BB"/>
<g clip-path="url(#clip1_1012:11733)">
<path d="M159.26 110.52H153.264C152.682 108.025 150.056 105.984 148.978 104.64C147.132 102.333 145.975 99.5524 145.64 96.6173C145.306 93.6822 145.807 90.7123 147.087 88.0497C148.366 85.3871 150.372 83.1402 152.873 81.5677C155.374 79.9952 158.268 79.1611 161.222 79.1616C164.176 79.1621 167.07 79.9971 169.57 81.5704C172.071 83.1436 174.076 85.3912 175.354 88.0542C176.633 90.7172 177.134 93.6873 176.798 96.6223C176.463 99.5573 175.305 102.338 173.458 104.644C172.38 105.986 169.758 108.027 169.176 110.52H163.18V100.72H159.26V110.52ZM169.06 114.44V116.4C169.06 117.439 168.647 118.436 167.912 119.172C167.177 119.907 166.18 120.32 165.14 120.32H157.3C156.26 120.32 155.263 119.907 154.528 119.172C153.793 118.436 153.38 117.439 153.38 116.4V114.44H169.06Z" fill="#FDE541"/>
<path d="M157.247 110.52H159.26V100.72H163.18V110.52H165.193C165.452 108.164 166.653 106.219 168.603 104.097C168.825 103.858 170.234 102.397 170.401 102.19C171.785 100.46 172.653 98.3749 172.904 96.174C173.155 93.973 172.779 91.7459 171.82 89.749C170.861 87.7522 169.357 86.0669 167.482 84.8871C165.607 83.7074 163.437 83.0812 161.222 83.0808C159.007 83.0803 156.836 83.7055 154.961 84.8844C153.086 86.0634 151.581 87.7481 150.621 89.7445C149.661 91.7409 149.285 93.9679 149.535 96.169C149.785 98.3701 150.652 100.456 152.035 102.186C152.204 102.395 153.617 103.858 153.835 104.095C155.787 106.219 156.988 108.164 157.247 110.52ZM157.3 114.44V116.4H165.14V114.44H157.3ZM148.978 104.64C147.132 102.333 145.975 99.5524 145.64 96.6173C145.306 93.6822 145.807 90.7123 147.087 88.0497C148.366 85.3871 150.372 83.1402 152.873 81.5677C155.374 79.9952 158.268 79.1611 161.222 79.1616C164.176 79.1621 167.07 79.9971 169.57 81.5704C172.071 83.1436 174.076 85.3912 175.354 88.0542C176.633 90.7172 177.134 93.6873 176.798 96.6223C176.463 99.5573 175.305 102.338 173.458 104.644C172.243 106.157 169.06 108.56 169.06 111.5V116.4C169.06 117.439 168.647 118.436 167.912 119.172C167.177 119.907 166.18 120.32 165.14 120.32H157.3C156.26 120.32 155.263 119.907 154.528 119.172C153.793 118.436 153.38 117.439 153.38 116.4V111.5C153.38 108.56 150.195 106.157 148.978 104.64Z" fill="#484848"/>
</g>
</g>
<defs>
<clipPath id="clip0_1012:11733">
<rect width="94.08" height="94.08" fill="white" transform="matrix(-1 0 0 1 204.34 55.6396)"/>
</clipPath>
<clipPath id="clip1_1012:11733">
<rect width="47.04" height="47.04" fill="white" transform="translate(137.7 75.2397)"/>
</clipPath>
</defs>
</svg>
