<svg width="32" height="32" viewBox="0 0 32 32" fill="none" xmlns="http://www.w3.org/2000/svg">
<path fill-rule="evenodd" clip-rule="evenodd" d="M27.1741 11.6832V2.99573L29.7448 2.99833C29.9063 2.99833 30.055 3.06354 30.1644 3.17319C30.2708 3.28275 30.3386 3.43146 30.3386 3.59329V26.3756C30.3386 26.5375 30.2738 26.6862 30.1644 26.7957C30.055 26.9027 29.9063 26.9707 29.7448 26.9707H18.4561C18.4323 26.9707 18.4085 26.9707 18.3854 26.9733C17.7731 26.9784 17.2314 27.1429 16.7366 27.4455V21.9048H18.4896C18.7529 22.3602 19.2456 22.6667 19.8095 22.6667C20.651 22.6667 21.3333 21.9845 21.3333 21.1429C21.3333 20.3013 20.651 19.6191 19.8095 19.6191C19.2456 19.6191 18.7529 19.9255 18.4896 20.381H16.7366V15.8095H18.4896C18.7529 16.265 19.2456 16.5714 19.8095 16.5714C20.651 16.5714 21.3333 15.8892 21.3333 15.0476C21.3333 14.206 20.651 13.5238 19.8095 13.5238C19.2456 13.5238 18.7529 13.8303 18.4896 14.2857H16.7366V9.7143H18.4896C18.6555 10.0013 18.9122 10.2291 19.221 10.3584V11.6806C19.2218 11.7478 19.2306 11.8145 19.2471 11.8792C19.2664 11.9582 19.2969 12.0341 19.3378 12.1047C19.4136 12.2333 19.5223 12.3389 19.6526 12.4105C19.7246 12.4501 19.8021 12.4784 19.8818 12.4951C19.9464 12.5086 20.0126 12.5142 20.0795 12.5118C20.1481 12.5093 20.2158 12.4981 20.2813 12.4789C20.3572 12.4567 20.43 12.4235 20.4971 12.38L23.2678 10.5924L25.8147 12.3253C25.9584 12.4452 26.1435 12.5157 26.3438 12.5157C26.8021 12.5157 27.1741 12.1425 27.1741 11.6832ZM19.221 7.54642V2.99573H17.3251C17.1904 2.99582 17.0587 3.04178 16.9531 3.12623C16.8512 3.20964 16.7761 3.3219 16.7448 3.4524L16.7366 3.49155V8.19049H18.4896C18.6555 7.90348 18.9122 7.6757 19.221 7.54642ZM14.9583 8.19049L14.8586 3.08632C14.7634 3.0268 14.654 2.99536 14.5417 2.99573H2.25521C2.16741 2.99573 2.08334 3.01583 2.00744 3.05153C1.9442 3.08131 1.88616 3.12185 1.83631 3.17059C1.75819 3.24853 1.70164 3.34627 1.67485 3.45546C1.66444 3.49973 1.65848 3.54587 1.65848 3.59329V26.3756C1.65848 26.5375 1.72619 26.6862 1.83333 26.7957C1.9427 26.9053 2.09077 26.9707 2.25224 26.9707H13.5573C14.2812 26.9707 14.7314 27.0463 15.0752 27.221L15.0759 21.9048H13.5104C13.247 22.3602 12.7545 22.6667 12.1905 22.6667C11.349 22.6667 10.6667 21.9845 10.6667 21.1429C10.6667 20.3013 11.349 19.6191 12.1905 19.6191C12.7545 19.6191 13.247 19.9255 13.5104 20.381H15.0759L15.0766 15.8095H13.5104C13.247 16.265 12.7545 16.5714 12.1905 16.5714C11.349 16.5714 10.6667 15.8892 10.6667 15.0476C10.6667 14.206 11.349 13.5238 12.1905 13.5238C12.7545 13.5238 13.247 13.8303 13.5104 14.2857H15.0766L14.9874 9.7143H13.5104C13.247 10.1697 12.7545 10.4762 12.1905 10.4762C11.349 10.4762 10.6667 9.79401 10.6667 8.95239C10.6667 8.11078 11.349 7.42858 12.1905 7.42858C12.7545 7.42858 13.247 7.73503 13.5104 8.19049H14.9583ZM17.5522 28.8965C17.8051 28.732 18.0782 28.6382 18.3854 28.6328L18.4561 28.6356H29.7448C30.041 28.6357 30.334 28.5774 30.6078 28.4637C30.8809 28.3499 31.1294 28.183 31.3385 27.9727C31.747 27.563 32 26.9967 32 26.3756V3.59329C32 3.29651 31.9419 3.00262 31.8281 2.72853C31.715 2.45444 31.5483 2.20555 31.3385 1.9962C30.9294 1.58651 30.3646 1.33334 29.7448 1.33334H17.3251C17.2032 1.33344 17.0819 1.34358 16.962 1.36329C16.8215 1.38664 16.683 1.42337 16.5498 1.47285C16.3281 1.55488 16.1198 1.67207 15.9323 1.82135C15.5499 1.51601 15.0655 1.33334 14.5417 1.33334H2.25521C1.95907 1.33307 1.66592 1.39147 1.39211 1.50522C1.11905 1.61897 0.870536 1.78582 0.661458 1.9962C0.568453 2.0892 0.483631 2.19021 0.408482 2.29809C0.299851 2.45304 0.210566 2.62222 0.142857 2.802C0.0505952 3.04874 0 3.31558 0 3.59329V26.3756C0.000744047 26.9756 0.238095 27.5509 0.661458 27.9753C0.870536 28.1855 1.11905 28.3522 1.39211 28.4658C1.66592 28.5797 1.95907 28.6382 2.25521 28.6382H13.5595C14.3229 28.6382 14.4635 28.8155 14.8281 29.2724C14.9033 29.3688 14.9874 29.4732 15.0781 29.5829V30.5615C15.0781 31.0208 15.4508 31.394 15.9092 31.394C16.3675 31.394 16.7397 31.0208 16.7397 30.5615V29.7263C16.9999 29.3637 17.2686 29.0844 17.5522 28.8965ZM20.8802 3.0348H25.5134V10.1227L23.7396 8.91696C23.4583 8.72649 23.1013 8.73429 22.8303 8.90393L20.8802 10.1618V3.0348Z" fill="#484848"/>
</svg>
