<svg width="200" height="174" viewBox="0 0 200 174" fill="none" xmlns="http://www.w3.org/2000/svg">
<g clip-path="url(#clip0_1025:17135)">
<path d="M3.05176e-05 50.74C3.05176e-05 23.1257 22.3858 0.73999 50 0.73999H150C177.614 0.73999 200 23.1258 200 50.74V123.74C200 151.354 177.614 173.74 150 173.74H50C22.3858 173.74 3.05176e-05 151.354 3.05176e-05 123.74V50.74Z" fill="#E2E8F0"/>
<circle cx="105.719" cy="92.3527" r="68.8261" fill="white"/>
<path d="M159.435 93.3341L166.456 98.5414L158.078 101.034L108.032 92.209C106.28 89.708 106.888 86.2609 109.389 84.5096L159.435 93.3341Z" fill="#94A3B8"/>
<path d="M159.435 93.3341L166.456 98.5414L158.078 101.034M159.435 93.3341L158.078 101.034M159.435 93.3341L109.389 84.5096V84.5096C106.888 86.2609 106.28 89.708 108.032 92.209V92.209L158.078 101.034" stroke="#94A3B8" stroke-width="3.90909"/>
<path d="M159.435 93.3341L166.456 98.5414L158.078 101.033L156.153 100.694C155.368 98.057 155.871 95.2045 157.51 92.9947L159.435 93.3341Z" fill="#64748B"/>
<path d="M159.435 93.3341L166.456 98.5414L158.078 101.033M159.435 93.3341L158.078 101.033M159.435 93.3341L157.51 92.9947V92.9947C155.871 95.2045 155.368 98.057 156.153 100.694V100.694L158.078 101.033" stroke="#64748B" stroke-width="3.90909"/>
<path d="M163.285 94.013L170.306 99.2204L161.927 101.712C160.176 99.2114 160.784 95.7643 163.285 94.013Z" fill="#334155" stroke="#334155" stroke-width="0.43"/>
<path d="M117.864 91.6489C90.877 91.6489 69 114.401 69 142.467H166.727C166.727 114.401 144.85 91.6489 117.864 91.6489Z" fill="#75D9BB"/>
<path d="M88.5454 117.058V132.694C88.5454 133.774 87.6703 134.649 86.5909 134.649C85.5114 134.649 84.6363 133.774 84.6363 132.694V107.285H96.3636V124.876C96.3636 125.956 95.4885 126.831 94.409 126.831C93.3296 126.831 92.4545 125.956 92.4545 124.876V117.058C92.4545 115.979 91.5794 115.104 90.5 115.104C89.4205 115.104 88.5454 115.979 88.5454 117.058Z" fill="#AFF2DE"/>
<path d="M60.4078 23.4459C60.1727 21.563 62.4883 20.4832 63.7795 21.8736L130.932 94.1851L72.6367 121.369L60.4078 23.4459Z" fill="#ECD582"/>
<path d="M139.364 107.285C132.887 107.285 127.636 112.536 127.636 119.013H151.091C151.091 112.536 145.84 107.285 139.364 107.285Z" fill="white"/>
<path d="M135.455 111.195C131.137 111.195 127.636 114.695 127.636 119.013H143.273C143.273 114.695 139.772 111.195 135.455 111.195Z" fill="#484848"/>
<circle cx="131.545" cy="99.4674" r="7.81818" fill="#75D9BB"/>
<circle cx="112" cy="103.376" r="3.90909" fill="#75D9BB"/>
<circle cx="106.136" cy="105.331" r="5.86364" fill="#75D9BB"/>
<circle cx="76.8182" cy="122.922" r="7.81818" fill="#75D9BB"/>
<path d="M115.909 107.285C109.432 107.285 104.182 112.536 104.182 119.013H127.636C127.636 112.536 122.386 107.285 115.909 107.285Z" fill="white"/>
<path d="M112 111.195C107.682 111.195 104.182 114.695 104.182 119.013H119.818C119.818 114.695 116.318 111.195 112 111.195Z" fill="#484848"/>
<path d="M141.318 134.649C105.696 134.649 49.4546 139.18 49.4546 146.376H178.455C178.455 139.18 176.941 134.649 141.318 134.649Z" fill="#AFF2DE"/>
<g clip-path="url(#clip1_1025:17135)">
<path d="M149.136 105.331H137.409C133.091 105.331 129.591 108.831 129.591 113.149C129.591 117.467 133.091 120.967 137.409 120.967H149.136C153.454 120.967 156.955 117.467 156.955 113.149C156.955 108.831 153.454 105.331 149.136 105.331Z" stroke="#0F172A" stroke-width="3.90909"/>
<path d="M121.773 105.331H110.045C105.728 105.331 102.227 108.831 102.227 113.149C102.227 117.467 105.728 120.967 110.045 120.967H121.773C126.091 120.967 129.591 117.467 129.591 113.149C129.591 108.831 126.091 105.331 121.773 105.331Z" stroke="#0F172A" stroke-width="3.90909"/>
<path d="M101.811 112.617L74.3311 105.747" stroke="#0F172A" stroke-width="3.90909" stroke-linecap="round"/>
</g>
<path d="M117.713 127.863C117.6 126.789 118.379 125.828 119.453 125.715C120.526 125.602 121.488 126.381 121.601 127.454L117.713 127.863ZM133.264 126.229C133.151 125.155 133.93 124.193 135.003 124.08C136.077 123.968 137.039 124.746 137.151 125.82L133.264 126.229ZM121.601 127.454L121.603 127.465C121.603 127.465 121.609 127.482 121.619 127.5C121.639 127.537 121.684 127.605 121.779 127.696C121.978 127.887 122.34 128.125 122.91 128.338C124.051 128.767 125.726 128.986 127.637 128.785L128.045 132.673C125.662 132.924 123.357 132.681 121.537 131.998C119.838 131.361 117.945 130.07 117.713 127.863L121.601 127.454ZM127.637 128.785C129.547 128.585 131.14 128.021 132.167 127.365C132.68 127.038 132.984 126.731 133.14 126.502C133.214 126.393 133.244 126.317 133.256 126.277C133.261 126.257 133.264 126.239 133.264 126.239L133.264 126.229L137.151 125.82C137.383 128.026 135.8 129.683 134.271 130.66C132.632 131.707 130.429 132.423 128.045 132.673L127.637 128.785Z" fill="#484848"/>
</g>
<defs>
<clipPath id="clip0_1025:17135">
<path d="M3.05176e-05 50.74C3.05176e-05 23.1257 22.3858 0.73999 50 0.73999H150C177.614 0.73999 200 23.1258 200 50.74V123.74C200 151.354 177.614 173.74 150 173.74H50C22.3858 173.74 3.05176e-05 151.354 3.05176e-05 123.74V50.74Z" fill="white"/>
</clipPath>
<clipPath id="clip1_1025:17135">
<rect width="89.9091" height="19.5455" fill="white" transform="translate(69 103.376)"/>
</clipPath>
</defs>
</svg>
