<svg width="230" height="42" viewBox="0 0 230 42" fill="none" xmlns="http://www.w3.org/2000/svg">
<path d="M0.5 21C0.5 9.40202 9.90202 0 21.5 0H229.5V42H21.5C9.90202 42 0.5 32.598 0.5 21Z" fill="#ECD582"/>
<g clip-path="url(#clip0_1039:18516)">
<path d="M21.373 13H35.627C35.7848 13 35.9403 13.0373 36.0809 13.1089C36.2215 13.1805 36.3432 13.2844 36.436 13.412L40.259 18.668C40.3269 18.7615 40.3604 18.8757 40.3536 18.9911C40.3469 19.1065 40.3004 19.216 40.222 19.301L28.867 31.602C28.777 31.6992 28.6521 31.7568 28.5198 31.7621C28.3874 31.7673 28.2584 31.7198 28.161 31.63C28.154 31.624 24.361 27.515 16.778 19.301C16.6996 19.216 16.653 19.1065 16.6463 18.9911C16.6396 18.8757 16.673 18.7615 16.741 18.668L20.564 13.412C20.6568 13.2844 20.7784 13.1805 20.919 13.1089C21.0596 13.0373 21.2152 13 21.373 13ZM21.883 15L19.083 18.85L28.5 29.05L37.917 18.85L35.117 15H21.883Z" fill="#484848"/>
</g>
<path d="M55.476 28.16C54.612 28.16 53.7747 28.0373 52.964 27.792C52.164 27.5467 51.5293 27.2213 51.06 26.816L51.78 25.2C52.2387 25.5627 52.7987 25.8613 53.46 26.096C54.132 26.32 54.804 26.432 55.476 26.432C56.308 26.432 56.9267 26.2987 57.332 26.032C57.748 25.7653 57.956 25.4133 57.956 24.976C57.956 24.656 57.8387 24.3947 57.604 24.192C57.38 23.9787 57.092 23.8133 56.74 23.696C56.388 23.5787 55.908 23.4453 55.3 23.296C54.4467 23.0933 53.7533 22.8907 53.22 22.688C52.6973 22.4853 52.244 22.1707 51.86 21.744C51.4867 21.3067 51.3 20.72 51.3 19.984C51.3 19.3653 51.4653 18.8053 51.796 18.304C52.1373 17.792 52.644 17.3867 53.316 17.088C53.9987 16.7893 54.8307 16.64 55.812 16.64C56.4947 16.64 57.1667 16.7253 57.828 16.896C58.4893 17.0667 59.06 17.312 59.54 17.632L58.884 19.248C58.3933 18.96 57.8813 18.7413 57.348 18.592C56.8147 18.4427 56.2973 18.368 55.796 18.368C54.9747 18.368 54.3613 18.5067 53.956 18.784C53.5613 19.0613 53.364 19.4293 53.364 19.888C53.364 20.208 53.476 20.4693 53.7 20.672C53.9347 20.8747 54.228 21.0347 54.58 21.152C54.932 21.2693 55.412 21.4027 56.02 21.552C56.852 21.744 57.5347 21.9467 58.068 22.16C58.6013 22.3627 59.0547 22.6773 59.428 23.104C59.812 23.5307 60.004 24.1067 60.004 24.832C60.004 25.4507 59.8333 26.0107 59.492 26.512C59.1613 27.0133 58.6547 27.4133 57.972 27.712C57.2893 28.0107 56.4573 28.16 55.476 28.16ZM65.7145 28.112C64.8505 28.112 64.0718 27.9253 63.3785 27.552C62.6852 27.1787 62.1412 26.6613 61.7465 26C61.3625 25.328 61.1705 24.5707 61.1705 23.728C61.1705 22.8853 61.3625 22.1333 61.7465 21.472C62.1412 20.8107 62.6852 20.2933 63.3785 19.92C64.0718 19.5467 64.8505 19.36 65.7145 19.36C66.5892 19.36 67.3732 19.5467 68.0665 19.92C68.7598 20.2933 69.2985 20.8107 69.6825 21.472C70.0772 22.1333 70.2745 22.8853 70.2745 23.728C70.2745 24.5707 70.0772 25.328 69.6825 26C69.2985 26.6613 68.7598 27.1787 68.0665 27.552C67.3732 27.9253 66.5892 28.112 65.7145 28.112ZM65.7145 26.4C66.4505 26.4 67.0585 26.1547 67.5385 25.664C68.0185 25.1733 68.2585 24.528 68.2585 23.728C68.2585 22.928 68.0185 22.2827 67.5385 21.792C67.0585 21.3013 66.4505 21.056 65.7145 21.056C64.9785 21.056 64.3705 21.3013 63.8905 21.792C63.4212 22.2827 63.1865 22.928 63.1865 23.728C63.1865 24.528 63.4212 25.1733 63.8905 25.664C64.3705 26.1547 64.9785 26.4 65.7145 26.4ZM72.187 16.128H74.187V28H72.187V16.128ZM84.812 19.456L81.148 28H79.084L75.42 19.456H77.5L80.156 25.792L82.892 19.456H84.812ZM93.8596 23.776C93.8596 23.9147 93.849 24.112 93.8276 24.368H87.1236C87.241 24.9973 87.545 25.4987 88.0356 25.872C88.537 26.2347 89.1556 26.416 89.8916 26.416C90.8303 26.416 91.6036 26.1067 92.2116 25.488L93.2836 26.72C92.8996 27.1787 92.4143 27.5253 91.8276 27.76C91.241 27.9947 90.5796 28.112 89.8436 28.112C88.905 28.112 88.0783 27.9253 87.3636 27.552C86.649 27.1787 86.0943 26.6613 85.6996 26C85.3156 25.328 85.1236 24.5707 85.1236 23.728C85.1236 22.896 85.3103 22.1493 85.6836 21.488C86.0676 20.816 86.5956 20.2933 87.2676 19.92C87.9396 19.5467 88.697 19.36 89.5396 19.36C90.3716 19.36 91.113 19.5467 91.7636 19.92C92.425 20.2827 92.937 20.8 93.2996 21.472C93.673 22.1333 93.8596 22.9013 93.8596 23.776ZM89.5396 20.96C88.8996 20.96 88.3556 21.152 87.9076 21.536C87.4703 21.9093 87.2036 22.4107 87.1076 23.04H91.9556C91.8703 22.4213 91.609 21.92 91.1716 21.536C90.7343 21.152 90.1903 20.96 89.5396 20.96ZM104.149 16.128V28H102.229V26.896C101.898 27.3013 101.487 27.6053 100.997 27.808C100.517 28.0107 99.9834 28.112 99.3968 28.112C98.5754 28.112 97.8341 27.9307 97.1728 27.568C96.5221 27.2053 96.0101 26.6933 95.6368 26.032C95.2634 25.36 95.0768 24.592 95.0768 23.728C95.0768 22.864 95.2634 22.1013 95.6368 21.44C96.0101 20.7787 96.5221 20.2667 97.1728 19.904C97.8341 19.5413 98.5754 19.36 99.3968 19.36C99.9621 19.36 100.479 19.456 100.949 19.648C101.418 19.84 101.818 20.128 102.149 20.512V16.128H104.149ZM99.6368 26.4C100.117 26.4 100.549 26.2933 100.933 26.08C101.317 25.856 101.621 25.5413 101.845 25.136C102.069 24.7307 102.181 24.2613 102.181 23.728C102.181 23.1947 102.069 22.7253 101.845 22.32C101.621 21.9147 101.317 21.6053 100.933 21.392C100.549 21.168 100.117 21.056 99.6368 21.056C99.1568 21.056 98.7248 21.168 98.3408 21.392C97.9568 21.6053 97.6528 21.9147 97.4288 22.32C97.2048 22.7253 97.0928 23.1947 97.0928 23.728C97.0928 24.2613 97.2048 24.7307 97.4288 25.136C97.6528 25.5413 97.9568 25.856 98.3408 26.08C98.7248 26.2933 99.1568 26.4 99.6368 26.4Z" fill="#484848"/>
<defs>
<clipPath id="clip0_1039:18516">
<rect width="24" height="24" fill="white" transform="translate(16.5 10)"/>
</clipPath>
</defs>
</svg>
