<svg width="200" height="174" viewBox="0 0 200 174" fill="none" xmlns="http://www.w3.org/2000/svg">
<g clip-path="url(#clip0_1025:16896)">
<path d="M6.10352e-05 50.74C6.10352e-05 23.1257 22.3858 0.73999 50.0001 0.73999H150C177.614 0.73999 200 23.1258 200 50.74V123.74C200 151.354 177.614 173.74 150 173.74H50.0001C22.3858 173.74 6.10352e-05 151.354 6.10352e-05 123.74V50.74Z" fill="#E2E8F0"/>
<circle cx="106.224" cy="92.4651" r="68.9114" fill="white"/>
<path d="M118.145 91.9241C91.0756 91.9241 69.1317 114.746 69.1317 142.898H167.158C167.158 114.746 145.214 91.9241 118.145 91.9241Z" fill="#75D9BB"/>
<path d="M88.7368 117.411V133.095C88.7368 134.178 87.8591 135.056 86.7763 135.056C85.6936 135.056 84.8158 134.178 84.8158 133.095V107.608H96.579V125.253C96.579 126.336 95.7012 127.214 94.6184 127.214C93.5357 127.214 92.6579 126.336 92.6579 125.253V117.411C92.6579 116.328 91.7801 115.451 90.6974 115.451C89.6146 115.451 88.7368 116.328 88.7368 117.411Z" fill="#AFF2DE"/>
<path d="M60.5129 23.5123C60.2771 21.6236 62.5998 20.5405 63.895 21.9352L131.253 94.468L72.7792 121.735L60.5129 23.5123Z" fill="#ECD582"/>
<path d="M139.711 107.608C133.214 107.608 127.947 112.875 127.947 119.372H151.474C151.474 112.875 146.207 107.608 139.711 107.608Z" fill="white"/>
<path d="M135.789 107.608C131.458 107.608 127.947 111.119 127.947 115.451H143.632C143.632 111.119 140.121 107.608 135.789 107.608Z" fill="#484848"/>
<circle cx="131.868" cy="99.7662" r="7.84211" fill="#75D9BB"/>
<circle cx="112.263" cy="103.687" r="3.92105" fill="#75D9BB"/>
<circle cx="106.381" cy="105.648" r="5.88158" fill="#75D9BB"/>
<circle cx="76.9738" cy="123.293" r="7.84211" fill="#75D9BB"/>
<path d="M116.184 107.608C109.688 107.608 104.421 112.875 104.421 119.372H127.947C127.947 112.875 122.681 107.608 116.184 107.608Z" fill="white"/>
<path d="M112.263 107.608C107.932 107.608 104.421 111.119 104.421 115.451H120.105C120.105 111.119 116.594 107.608 112.263 107.608Z" fill="#484848"/>
<path d="M141.671 135.056C105.94 135.056 49.5263 139.6 49.5263 146.819H178.921C178.921 139.6 177.402 135.056 141.671 135.056Z" fill="#AFF2DE"/>
<path d="M117.994 128.25C117.881 127.173 118.662 126.208 119.739 126.095C120.816 125.982 121.78 126.763 121.893 127.84L117.994 128.25ZM133.592 126.61C133.479 125.534 134.26 124.569 135.337 124.456C136.414 124.342 137.379 125.124 137.492 126.201L133.592 126.61ZM121.893 127.84L121.896 127.85C121.896 127.85 121.902 127.868 121.912 127.886C121.931 127.923 121.977 127.991 122.072 128.083C122.272 128.274 122.635 128.512 123.206 128.727C124.351 129.156 126.031 129.376 127.948 129.175L128.358 133.075C125.967 133.326 123.656 133.083 121.829 132.398C120.125 131.759 118.226 130.463 117.994 128.25L121.893 127.84ZM127.948 129.175C129.864 128.974 131.462 128.409 132.492 127.751C133.007 127.422 133.312 127.114 133.468 126.885C133.542 126.775 133.572 126.699 133.584 126.659C133.59 126.639 133.592 126.621 133.592 126.621L133.592 126.61L137.492 126.201C137.724 128.414 136.136 130.076 134.603 131.055C132.959 132.105 130.748 132.823 128.358 133.075L127.948 129.175Z" fill="#484848"/>
<path d="M41.6843 59.2328C44.9518 57.2723 53.0553 54.5276 59.329 59.2328C67.1711 65.1144 73.2184 72.4847 78.9343 78.2006C80.8948 80.1611 96.579 89.9637 106.382 82.1216C114.236 75.8384 119.07 67.3631 110.303 58.5953C104.421 52.7138 94.6185 46.8322 90.6974 50.7532" stroke="#94A3B8" stroke-width="3.92105"/>
<g clip-path="url(#clip1_1025:16896)">
<path d="M68.8643 79.1192L78.8225 70.6545L89.7382 77.8443L90.7754 94.8031C90.7965 95.1491 90.6794 95.4892 90.4497 95.7488C90.2201 96.0084 89.8968 96.1661 89.5508 96.1873L71.2858 97.3044C70.9399 97.3255 70.5997 97.2084 70.3401 96.9787C70.0806 96.7491 69.9228 96.4258 69.9016 96.0798L68.8643 79.1192ZM79.6204 83.7002C79.9631 83.6792 80.2982 83.5909 80.6067 83.4403C80.9152 83.2898 81.1911 83.08 81.4185 82.8228C81.6459 82.5657 81.8205 82.2662 81.9322 81.9416C82.0439 81.617 82.0906 81.2736 82.0696 80.9309C82.0485 80.5883 81.9602 80.2531 81.8097 79.9446C81.6592 79.6361 81.4493 79.3603 81.1922 79.1328C80.935 78.9054 80.6356 78.7309 80.311 78.6192C79.9864 78.5075 79.643 78.4608 79.3003 78.4818C78.9577 78.5028 78.6225 78.5911 78.314 78.7417C78.0055 78.8922 77.7296 79.102 77.5022 79.3592C77.0429 79.8785 76.8087 80.559 76.8512 81.251C76.8936 81.943 77.2092 82.5898 77.7286 83.0491C78.2479 83.5085 78.9284 83.7426 79.6204 83.7002Z" fill="#FDE541"/>
</g>
<g clip-path="url(#clip2_1025:16896)">
<path d="M68.8643 79.1192L78.8225 70.6545L89.7382 77.8443L90.7754 94.8031C90.7965 95.1491 90.6794 95.4892 90.4497 95.7488C90.2201 96.0084 89.8968 96.1661 89.5508 96.1873L71.2858 97.3044C70.9399 97.3255 70.5997 97.2084 70.3401 96.9787C70.0806 96.7491 69.9228 96.4258 69.9016 96.0798L68.8643 79.1192ZM71.5538 80.2649L72.4306 94.6159L88.0859 93.6574L87.2082 79.3074L79.0219 73.9146L71.5538 80.2649ZM79.6195 83.7012C78.9273 83.7434 78.2466 83.5089 77.7272 83.0492C77.4701 82.8216 77.2603 82.5456 77.1098 82.2369C76.9593 81.9282 76.8711 81.5929 76.8502 81.2502C76.8293 80.9074 76.8761 80.5639 76.988 80.2392C77.0998 79.9145 77.2745 79.615 77.5021 79.3579C77.9618 78.8385 78.6089 78.523 79.3012 78.4808C79.9934 78.4386 80.6741 78.6731 81.1935 79.1328C81.7128 79.5924 82.0283 80.2395 82.0705 80.9318C82.1128 81.6241 81.8782 82.3048 81.4186 82.8241C80.9589 83.3435 80.3118 83.659 79.6195 83.7012Z" fill="#484848"/>
</g>
<g clip-path="url(#clip3_1025:16896)">
<path d="M36.3255 51.5376L49.2636 53.387L51.1117 66.3265L39.0976 78.3406C38.8525 78.5856 38.5202 78.7233 38.1736 78.7233C37.827 78.7233 37.4946 78.5856 37.2495 78.3406L24.31 65.4011C24.065 65.156 23.9274 64.8236 23.9274 64.4771C23.9274 64.1305 24.065 63.7981 24.31 63.553L36.3255 51.5376ZM40.0217 62.6289C40.2645 62.8716 40.5527 63.0641 40.8699 63.1955C41.1871 63.3268 41.527 63.3943 41.8703 63.3943C42.2136 63.3942 42.5535 63.3265 42.8706 63.1951C43.1878 63.0637 43.4759 62.8711 43.7186 62.6283C43.9613 62.3855 44.1538 62.0973 44.2851 61.7801C44.4164 61.4629 44.484 61.123 44.4839 60.7797C44.4839 60.4364 44.4162 60.0965 44.2848 59.7794C44.1533 59.4622 43.9607 59.1741 43.718 58.9314C43.4752 58.6887 43.187 58.4962 42.8698 58.3649C42.5526 58.2336 42.2127 58.166 41.8694 58.1661C41.1761 58.1662 40.5112 58.4417 40.0211 58.932C39.5309 59.4224 39.2556 60.0873 39.2557 60.7806C39.2558 61.4739 39.5314 62.1388 40.0217 62.6289Z" fill="#FF705D"/>
</g>
<g clip-path="url(#clip4_1025:16896)">
<path d="M36.3255 51.5376L49.2636 53.387L51.1117 66.3265L39.0976 78.3406C38.8525 78.5856 38.5202 78.7233 38.1736 78.7233C37.827 78.7233 37.4946 78.5856 37.2495 78.3406L24.31 65.4011C24.065 65.156 23.9274 64.8236 23.9274 64.4771C23.9274 64.1305 24.065 63.7981 24.31 63.553L36.3255 51.5376ZM37.2495 54.3111L27.0822 64.4771L38.1736 75.5671L48.3396 65.4011L46.9541 55.6965L37.2495 54.3111ZM40.0204 62.6289C39.5301 62.1384 39.2547 61.4733 39.2548 60.7797C39.2549 60.4363 39.3226 60.0963 39.454 59.779C39.5855 59.4618 39.7782 59.1735 40.0211 58.9307C40.2639 58.688 40.5522 58.4954 40.8695 58.364C41.1868 58.2327 41.5269 58.1651 41.8703 58.1651C42.5638 58.1653 43.2289 58.4409 43.7193 58.9314C44.2096 59.4219 44.485 60.0871 44.4849 60.7806C44.4847 61.4742 44.2091 62.1393 43.7186 62.6296C43.2281 63.1199 42.5629 63.3953 41.8694 63.3952C41.1758 63.3951 40.5107 63.1194 40.0204 62.6289Z" fill="#484848"/>
</g>
<g clip-path="url(#clip5_1025:16896)">
<path d="M105.795 77.8915L109.971 65.5071L123.031 66.0479L132.654 80.0502C132.851 80.3359 132.925 80.6878 132.862 81.0286C132.799 81.3693 132.603 81.6711 132.317 81.8674L117.237 92.2322C116.951 92.4285 116.599 92.5032 116.258 92.4401C115.918 92.3769 115.616 92.181 115.419 91.8954L105.795 77.8915ZM117.374 76.2784C117.657 76.0839 117.899 75.8356 118.086 75.5477C118.273 75.2598 118.401 74.9378 118.464 74.6003C118.526 74.2627 118.521 73.9162 118.45 73.5804C118.379 73.2446 118.242 72.9262 118.047 72.6433C117.853 72.3604 117.604 72.1186 117.316 71.9317C117.029 71.7448 116.707 71.6164 116.369 71.5539C116.031 71.4914 115.685 71.496 115.349 71.5675C115.013 71.6389 114.695 71.7758 114.412 71.9702C114.129 72.1647 113.887 72.413 113.7 72.701C113.514 72.9889 113.385 73.3109 113.323 73.6484C113.196 74.3301 113.346 75.0341 113.739 75.6054C114.132 76.1767 114.735 76.5685 115.417 76.6948C116.099 76.821 116.803 76.6712 117.374 76.2784Z" fill="#FF9ED8"/>
</g>
<g clip-path="url(#clip6_1025:16896)">
<path d="M105.795 77.8915L109.971 65.5071L123.031 66.0479L132.654 80.0502C132.851 80.3359 132.925 80.6878 132.862 81.0286C132.799 81.3693 132.603 81.6711 132.317 81.8674L117.237 92.2322C116.951 92.4285 116.599 92.5032 116.258 92.4401C115.918 92.3769 115.616 92.181 115.419 91.8954L105.795 77.8915ZM108.69 77.4884L116.833 89.338L129.759 80.4534L121.616 68.605L111.821 68.1988L108.69 77.4884ZM117.374 76.2797C116.802 76.6724 116.098 76.822 115.416 76.6955C115.078 76.6329 114.756 76.5043 114.468 76.3172C114.18 76.1301 113.932 75.8882 113.738 75.6051C113.543 75.3221 113.406 75.0035 113.335 74.6676C113.264 74.3317 113.259 73.985 113.322 73.6473C113.448 72.9654 113.841 72.3617 114.412 71.969C114.984 71.5762 115.688 71.4267 116.37 71.5532C117.052 71.6797 117.656 72.0719 118.048 72.6436C118.441 73.2152 118.591 73.9194 118.464 74.6013C118.338 75.2833 117.946 75.887 117.374 76.2797Z" fill="#484848"/>
</g>
<path d="M78.9342 80.1611C80.8947 82.1217 96.5789 89.9638 106.382 82.1217" stroke="#94A3B8" stroke-width="3.92105"/>
<path d="M116.184 74.2797C116.184 68.3981 114.224 70.3586 114.224 64.4771" stroke="#94A3B8" stroke-width="3.92105"/>
</g>
<defs>
<clipPath id="clip0_1025:16896">
<path d="M6.10352e-05 50.74C6.10352e-05 23.1257 22.3858 0.73999 50.0001 0.73999H150C177.614 0.73999 200 23.1258 200 50.74V123.74C200 151.354 177.614 173.74 150 173.74H50.0001C22.3858 173.74 6.10352e-05 151.354 6.10352e-05 123.74V50.74Z" fill="white"/>
</clipPath>
<clipPath id="clip1_1025:16896">
<rect width="31.3684" height="31.3684" fill="white" transform="translate(57.3684 87.9705) rotate(-48.5)"/>
</clipPath>
<clipPath id="clip2_1025:16896">
<rect width="31.3684" height="31.3684" fill="white" transform="translate(57.3684 87.9705) rotate(-48.5)"/>
</clipPath>
<clipPath id="clip3_1025:16896">
<rect width="31.3684" height="31.3684" fill="white" transform="translate(22.0789 48.7927)"/>
</clipPath>
<clipPath id="clip4_1025:16896">
<rect width="31.3684" height="31.3684" fill="white" transform="translate(22.0789 48.7927)"/>
</clipPath>
<clipPath id="clip5_1025:16896">
<rect width="31.3684" height="31.3684" fill="white" transform="translate(100.5 91.3992) rotate(-79.5)"/>
</clipPath>
<clipPath id="clip6_1025:16896">
<rect width="31.3684" height="31.3684" fill="white" transform="translate(100.5 91.3992) rotate(-79.5)"/>
</clipPath>
</defs>
</svg>
