<svg width="200" height="174" viewBox="0 0 200 174" fill="none" xmlns="http://www.w3.org/2000/svg">
<g clip-path="url(#clip0_1025:17973)">
<path d="M0 50.4265C0 22.8123 22.3858 0.426514 50 0.426514H150C177.614 0.426514 200 22.8123 200 50.4265V123.427C200 151.041 177.614 173.427 150 173.427H50C22.3858 173.427 0 151.041 0 123.427V50.4265Z" fill="#E2E8F0"/>
<circle cx="104.045" cy="92.1516" r="68.9114" fill="white"/>
<path d="M118.145 91.6106C91.0758 91.6106 69.1318 114.432 69.1318 142.584H167.158C167.158 114.432 145.214 91.6106 118.145 91.6106Z" fill="#75D9BB"/>
<path d="M88.737 117.098V132.782C88.737 133.865 87.8592 134.742 86.7764 134.742C85.6937 134.742 84.8159 133.865 84.8159 132.782V107.295H96.5791V124.94C96.5791 126.022 95.7013 126.9 94.6185 126.9C93.5358 126.9 92.658 126.022 92.658 124.94V117.098C92.658 116.015 91.7803 115.137 90.6975 115.137C89.6147 115.137 88.737 116.015 88.737 117.098Z" fill="#AFF2DE"/>
<path d="M60.5129 23.1988C60.2771 21.3101 62.5998 20.227 63.895 21.6217L131.253 94.1545L72.7792 121.421L60.5129 23.1988Z" fill="#ECD582"/>
<path d="M139.71 107.295C133.214 107.295 127.947 112.561 127.947 119.058H151.474C151.474 112.561 146.207 107.295 139.71 107.295Z" fill="white"/>
<path d="M139.71 111.216C135.379 111.216 131.868 114.727 131.868 119.058H147.552C147.552 114.727 144.041 111.216 139.71 111.216Z" fill="#484848"/>
<circle cx="131.868" cy="99.4527" r="7.84211" fill="#75D9BB"/>
<circle cx="112.263" cy="103.374" r="3.92105" fill="#75D9BB"/>
<circle cx="106.382" cy="105.334" r="5.88158" fill="#75D9BB"/>
<circle cx="76.9739" cy="122.979" r="7.84211" fill="#75D9BB"/>
<path d="M116.184 107.295C109.687 107.295 104.421 112.561 104.421 119.058H127.947C127.947 112.561 122.681 107.295 116.184 107.295Z" fill="white"/>
<path d="M116.184 107.295C109.687 107.295 104.421 112.561 104.421 119.058H127.947C127.947 112.561 122.681 107.295 116.184 107.295Z" fill="white"/>
<path d="M116.184 111.216C111.853 111.216 108.342 114.727 108.342 119.058H124.026C124.026 114.727 120.515 111.216 116.184 111.216Z" fill="#484848"/>
<path d="M141.671 134.742C105.94 134.742 49.5264 139.287 49.5264 146.506H178.921C178.921 139.287 177.402 134.742 141.671 134.742Z" fill="#AFF2DE"/>
<path d="M124.266 134.735C129.76 134.399 134.218 131.601 135.292 128.125C135.611 127.091 134.652 126.243 133.571 126.309L114.003 127.506C112.922 127.572 112.073 128.53 112.516 129.518C114.005 132.837 118.772 135.071 124.266 134.735Z" fill="#484848"/>
<g clip-path="url(#clip1_1025:17973)">
<path d="M151.537 106.308L134.043 108.611C129.749 109.176 130.102 108.716 130.668 113.01C131.233 117.304 134.297 120.522 138.591 119.957L153.072 117.97C157.367 117.405 156.502 113.977 155.936 109.683C155.371 105.389 155.831 105.742 151.537 106.308Z" fill="#334155" stroke="#0F172A" stroke-width="3.92105"/>
<path d="M124.325 109.89L106.831 112.193C102.537 112.758 102.89 112.298 103.456 116.592C104.021 120.887 104.073 124.421 108.367 123.856L123.041 122.004C127.335 121.439 129.29 117.56 128.725 113.266C128.159 108.972 128.619 109.325 124.325 109.89Z" fill="#334155" stroke="#0F172A" stroke-width="3.92105"/>
<path d="M102.972 116.118L74.7441 112.883" stroke="#0F172A" stroke-width="3.92105" stroke-linecap="round"/>
</g>
</g>
<defs>
<clipPath id="clip0_1025:17973">
<path d="M0 50.4265C0 22.8123 22.3858 0.426514 50 0.426514H150C177.614 0.426514 200 22.8123 200 50.4265V123.427C200 151.041 177.614 173.427 150 173.427H50C22.3858 173.427 0 151.041 0 123.427V50.4265Z" fill="white"/>
</clipPath>
<clipPath id="clip1_1025:17973">
<rect width="90.1842" height="19.6053" fill="white" transform="translate(69.1318 111.224) rotate(-7.5)"/>
</clipPath>
</defs>
</svg>
