<svg width="230" height="42" viewBox="0 0 230 42" fill="none" xmlns="http://www.w3.org/2000/svg">
<path d="M0.5 21C0.5 9.40202 9.90202 0 21.5 0H229.5V42H21.5C9.90202 42 0.5 32.598 0.5 21Z" fill="#ECD582"/>
<path d="M33.5 13H37.5C37.7652 13 38.0196 13.1054 38.2071 13.2929C38.3946 13.4804 38.5 13.7348 38.5 14V30C38.5 30.2652 38.3946 30.5196 38.2071 30.7071C38.0196 30.8946 37.7652 31 37.5 31H19.5C19.2348 31 18.9804 30.8946 18.7929 30.7071C18.6054 30.5196 18.5 30.2652 18.5 30V14C18.5 13.7348 18.6054 13.4804 18.7929 13.2929C18.9804 13.1054 19.2348 13 19.5 13H23.5V11H25.5V13H31.5V11H33.5V13ZM36.5 21H20.5V29H36.5V21ZM31.5 15H25.5V17H23.5V15H20.5V19H36.5V15H33.5V17H31.5V15ZM22.5 23H24.5V25H22.5V23ZM27.5 23H29.5V25H27.5V23ZM32.5 23H34.5V25H32.5V23Z" fill="#484848"/>
<path d="M57.188 28.16C56.0573 28.16 55.0333 27.9147 54.116 27.424C53.2093 26.9227 52.4947 26.2347 51.972 25.36C51.46 24.4853 51.204 23.4987 51.204 22.4C51.204 21.3013 51.4653 20.3147 51.988 19.44C52.5107 18.5653 53.2253 17.8827 54.132 17.392C55.0493 16.8907 56.0733 16.64 57.204 16.64C58.1213 16.64 58.9587 16.8 59.716 17.12C60.4733 17.44 61.1133 17.904 61.636 18.512L60.292 19.776C59.4813 18.9013 58.484 18.464 57.3 18.464C56.532 18.464 55.844 18.6347 55.236 18.976C54.628 19.3067 54.1533 19.7707 53.812 20.368C53.4707 20.9653 53.3 21.6427 53.3 22.4C53.3 23.1573 53.4707 23.8347 53.812 24.432C54.1533 25.0293 54.628 25.4987 55.236 25.84C55.844 26.1707 56.532 26.336 57.3 26.336C58.484 26.336 59.4813 25.8933 60.292 25.008L61.636 26.288C61.1133 26.896 60.468 27.36 59.7 27.68C58.9427 28 58.1053 28.16 57.188 28.16ZM66.6229 19.36C67.8815 19.36 68.8415 19.664 69.5029 20.272C70.1749 20.8693 70.5109 21.776 70.5109 22.992V28H68.6229V26.96C68.3775 27.3333 68.0255 27.6213 67.5669 27.824C67.1189 28.016 66.5749 28.112 65.9349 28.112C65.2949 28.112 64.7349 28.0053 64.2549 27.792C63.7749 27.568 63.4015 27.264 63.1349 26.88C62.8789 26.4853 62.7509 26.0427 62.7509 25.552C62.7509 24.784 63.0335 24.1707 63.5989 23.712C64.1749 23.2427 65.0762 23.008 66.3029 23.008H68.5109V22.88C68.5109 22.2827 68.3295 21.824 67.9669 21.504C67.6149 21.184 67.0869 21.024 66.3829 21.024C65.9029 21.024 65.4282 21.0987 64.9589 21.248C64.5002 21.3973 64.1109 21.6053 63.7909 21.872L63.0069 20.416C63.4549 20.0747 63.9935 19.8133 64.6229 19.632C65.2522 19.4507 65.9189 19.36 66.6229 19.36ZM66.3509 26.656C66.8522 26.656 67.2949 26.544 67.6789 26.32C68.0735 26.0853 68.3509 25.7547 68.5109 25.328V24.336H66.4469C65.2949 24.336 64.7189 24.7147 64.7189 25.472C64.7189 25.8347 64.8629 26.1227 65.1509 26.336C65.4389 26.5493 65.8389 26.656 66.3509 26.656ZM73.0776 16.128H75.0776V28H73.0776V16.128ZM85.7346 23.776C85.7346 23.9147 85.724 24.112 85.7026 24.368H78.9986C79.116 24.9973 79.42 25.4987 79.9106 25.872C80.412 26.2347 81.0306 26.416 81.7666 26.416C82.7053 26.416 83.4786 26.1067 84.0866 25.488L85.1586 26.72C84.7746 27.1787 84.2893 27.5253 83.7026 27.76C83.116 27.9947 82.4546 28.112 81.7186 28.112C80.78 28.112 79.9533 27.9253 79.2386 27.552C78.524 27.1787 77.9693 26.6613 77.5746 26C77.1906 25.328 76.9986 24.5707 76.9986 23.728C76.9986 22.896 77.1853 22.1493 77.5586 21.488C77.9426 20.816 78.4706 20.2933 79.1426 19.92C79.8146 19.5467 80.572 19.36 81.4146 19.36C82.2466 19.36 82.988 19.5467 83.6386 19.92C84.3 20.2827 84.812 20.8 85.1746 21.472C85.548 22.1333 85.7346 22.9013 85.7346 23.776ZM81.4146 20.96C80.7746 20.96 80.2306 21.152 79.7826 21.536C79.3453 21.9093 79.0786 22.4107 78.9826 23.04H83.8306C83.7453 22.4213 83.484 21.92 83.0466 21.536C82.6093 21.152 82.0653 20.96 81.4146 20.96ZM92.5038 19.36C93.5811 19.36 94.4451 19.6747 95.0958 20.304C95.7464 20.9333 96.0718 21.8667 96.0718 23.104V28H94.0718V23.36C94.0718 22.6133 93.8958 22.0533 93.5438 21.68C93.1918 21.296 92.6904 21.104 92.0398 21.104C91.3038 21.104 90.7224 21.328 90.2958 21.776C89.8691 22.2133 89.6558 22.848 89.6558 23.68V28H87.6558V19.456H89.5598V20.56C89.8904 20.1653 90.3064 19.8667 90.8078 19.664C91.3091 19.4613 91.8744 19.36 92.5038 19.36ZM107.055 16.128V28H105.135V26.896C104.804 27.3013 104.394 27.6053 103.903 27.808C103.423 28.0107 102.89 28.112 102.303 28.112C101.482 28.112 100.74 27.9307 100.079 27.568C99.4283 27.2053 98.9163 26.6933 98.543 26.032C98.1697 25.36 97.983 24.592 97.983 23.728C97.983 22.864 98.1697 22.1013 98.543 21.44C98.9163 20.7787 99.4283 20.2667 100.079 19.904C100.74 19.5413 101.482 19.36 102.303 19.36C102.868 19.36 103.386 19.456 103.855 19.648C104.324 19.84 104.724 20.128 105.055 20.512V16.128H107.055ZM102.543 26.4C103.023 26.4 103.455 26.2933 103.839 26.08C104.223 25.856 104.527 25.5413 104.751 25.136C104.975 24.7307 105.087 24.2613 105.087 23.728C105.087 23.1947 104.975 22.7253 104.751 22.32C104.527 21.9147 104.223 21.6053 103.839 21.392C103.455 21.168 103.023 21.056 102.543 21.056C102.063 21.056 101.631 21.168 101.247 21.392C100.863 21.6053 100.559 21.9147 100.335 22.32C100.111 22.7253 99.999 23.1947 99.999 23.728C99.999 24.2613 100.111 24.7307 100.335 25.136C100.559 25.5413 100.863 25.856 101.247 26.08C101.631 26.2933 102.063 26.4 102.543 26.4ZM112.935 19.36C114.194 19.36 115.154 19.664 115.815 20.272C116.487 20.8693 116.823 21.776 116.823 22.992V28H114.935V26.96C114.69 27.3333 114.338 27.6213 113.879 27.824C113.431 28.016 112.887 28.112 112.247 28.112C111.607 28.112 111.047 28.0053 110.567 27.792C110.087 27.568 109.714 27.264 109.447 26.88C109.191 26.4853 109.063 26.0427 109.063 25.552C109.063 24.784 109.346 24.1707 109.911 23.712C110.487 23.2427 111.389 23.008 112.615 23.008H114.823V22.88C114.823 22.2827 114.642 21.824 114.279 21.504C113.927 21.184 113.399 21.024 112.695 21.024C112.215 21.024 111.741 21.0987 111.271 21.248C110.813 21.3973 110.423 21.6053 110.103 21.872L109.319 20.416C109.767 20.0747 110.306 19.8133 110.935 19.632C111.565 19.4507 112.231 19.36 112.935 19.36ZM112.663 26.656C113.165 26.656 113.607 26.544 113.991 26.32C114.386 26.0853 114.663 25.7547 114.823 25.328V24.336H112.759C111.607 24.336 111.031 24.7147 111.031 25.472C111.031 25.8347 111.175 26.1227 111.463 26.336C111.751 26.5493 112.151 26.656 112.663 26.656ZM121.294 20.704C121.87 19.808 122.883 19.36 124.334 19.36V21.264C124.163 21.232 124.009 21.216 123.87 21.216C123.091 21.216 122.483 21.4453 122.046 21.904C121.609 22.352 121.39 23.0027 121.39 23.856V28H119.39V19.456H121.294V20.704Z" fill="#484848"/>
</svg>
