<svg width="230" height="42" viewBox="0 0 230 42" fill="none" xmlns="http://www.w3.org/2000/svg">
<path d="M0.5 21C0.5 9.40202 9.90202 0 21.5 0H229.5V42H21.5C9.90202 42 0.5 32.598 0.5 21Z" fill="#ECD582"/>
<path d="M27.4 12.1001L37.299 13.5151L38.713 23.4151L29.521 32.6071C29.3334 32.7946 29.0791 32.8999 28.814 32.8999C28.5488 32.8999 28.2945 32.7946 28.107 32.6071L18.207 22.7071C18.0195 22.5196 17.9142 22.2653 17.9142 22.0001C17.9142 21.7349 18.0195 21.4806 18.207 21.2931L27.4 12.1001ZM28.107 14.2221L20.328 22.0001L28.814 30.4851L36.592 22.7071L35.532 15.2821L28.107 14.2221ZM30.227 20.5861C29.8518 20.2108 29.6411 19.7019 29.6412 19.1712C29.6413 18.9085 29.6931 18.6483 29.7936 18.4056C29.8942 18.1629 30.0417 17.9424 30.2275 17.7566C30.4133 17.5708 30.6339 17.4235 30.8766 17.323C31.1194 17.2225 31.3796 17.1708 31.6423 17.1708C32.173 17.1709 32.6818 17.3818 33.057 17.7571C33.4321 18.1324 33.6428 18.6413 33.6427 19.172C33.6426 19.7026 33.4318 20.2114 33.0565 20.5866C32.6812 20.9617 32.1723 21.1724 31.6416 21.1724C31.111 21.1723 30.6021 20.9614 30.227 20.5861Z" fill="#484848"/>
<path d="M52.004 16.8H54.084V26.24H59.94V28H52.004V16.8ZM64.7323 19.36C65.9909 19.36 66.9509 19.664 67.6123 20.272C68.2843 20.8693 68.6203 21.776 68.6203 22.992V28H66.7323V26.96C66.4869 27.3333 66.1349 27.6213 65.6763 27.824C65.2283 28.016 64.6843 28.112 64.0443 28.112C63.4043 28.112 62.8443 28.0053 62.3643 27.792C61.8843 27.568 61.5109 27.264 61.2443 26.88C60.9883 26.4853 60.8603 26.0427 60.8603 25.552C60.8603 24.784 61.1429 24.1707 61.7083 23.712C62.2843 23.2427 63.1856 23.008 64.4123 23.008H66.6203V22.88C66.6203 22.2827 66.4389 21.824 66.0763 21.504C65.7243 21.184 65.1963 21.024 64.4923 21.024C64.0123 21.024 63.5376 21.0987 63.0683 21.248C62.6096 21.3973 62.2203 21.6053 61.9003 21.872L61.1163 20.416C61.5643 20.0747 62.1029 19.8133 62.7323 19.632C63.3616 19.4507 64.0283 19.36 64.7323 19.36ZM64.4603 26.656C64.9616 26.656 65.4043 26.544 65.7883 26.32C66.1829 26.0853 66.4603 25.7547 66.6203 25.328V24.336H64.5563C63.4043 24.336 62.8283 24.7147 62.8283 25.472C62.8283 25.8347 62.9723 26.1227 63.2603 26.336C63.5483 26.5493 63.9483 26.656 64.4603 26.656ZM75.923 19.36C76.755 19.36 77.4963 19.5413 78.147 19.904C78.8083 20.2667 79.3257 20.7787 79.699 21.44C80.0723 22.1013 80.259 22.864 80.259 23.728C80.259 24.592 80.0723 25.36 79.699 26.032C79.3257 26.6933 78.8083 27.2053 78.147 27.568C77.4963 27.9307 76.755 28.112 75.923 28.112C75.3363 28.112 74.7977 28.0107 74.307 27.808C73.827 27.6053 73.4217 27.3013 73.091 26.896V28H71.187V16.128H73.187V20.496C73.5283 20.1227 73.9283 19.84 74.387 19.648C74.8563 19.456 75.3683 19.36 75.923 19.36ZM75.699 26.4C76.435 26.4 77.0377 26.1547 77.507 25.664C77.987 25.1733 78.227 24.528 78.227 23.728C78.227 22.928 77.987 22.2827 77.507 21.792C77.0377 21.3013 76.435 21.056 75.699 21.056C75.219 21.056 74.787 21.168 74.403 21.392C74.019 21.6053 73.715 21.9147 73.491 22.32C73.267 22.7253 73.155 23.1947 73.155 23.728C73.155 24.2613 73.267 24.7307 73.491 25.136C73.715 25.5413 74.019 25.856 74.403 26.08C74.787 26.2933 75.219 26.4 75.699 26.4ZM90.1878 23.776C90.1878 23.9147 90.1771 24.112 90.1558 24.368H83.4518C83.5691 24.9973 83.8731 25.4987 84.3638 25.872C84.8651 26.2347 85.4838 26.416 86.2198 26.416C87.1584 26.416 87.9318 26.1067 88.5398 25.488L89.6118 26.72C89.2278 27.1787 88.7424 27.5253 88.1558 27.76C87.5691 27.9947 86.9078 28.112 86.1718 28.112C85.2331 28.112 84.4064 27.9253 83.6918 27.552C82.9771 27.1787 82.4224 26.6613 82.0278 26C81.6438 25.328 81.4518 24.5707 81.4518 23.728C81.4518 22.896 81.6384 22.1493 82.0118 21.488C82.3958 20.816 82.9238 20.2933 83.5958 19.92C84.2678 19.5467 85.0251 19.36 85.8678 19.36C86.6998 19.36 87.4411 19.5467 88.0918 19.92C88.7531 20.2827 89.2651 20.8 89.6278 21.472C90.0011 22.1333 90.1878 22.9013 90.1878 23.776ZM85.8678 20.96C85.2278 20.96 84.6838 21.152 84.2358 21.536C83.7984 21.9093 83.5318 22.4107 83.4358 23.04H88.2838C88.1984 22.4213 87.9371 21.92 87.4998 21.536C87.0624 21.152 86.5184 20.96 85.8678 20.96ZM92.1089 16.128H94.1089V28H92.1089V16.128ZM99.3739 28.112C98.6805 28.112 98.0032 28.0213 97.3419 27.84C96.6805 27.6587 96.1525 27.4293 95.7579 27.152L96.5259 25.632C96.9099 25.888 97.3685 26.096 97.9019 26.256C98.4459 26.4053 98.9792 26.48 99.5019 26.48C100.697 26.48 101.294 26.1653 101.294 25.536C101.294 25.2373 101.139 25.0293 100.83 24.912C100.531 24.7947 100.046 24.6827 99.3739 24.576C98.6699 24.4693 98.0939 24.3467 97.6459 24.208C97.2085 24.0693 96.8245 23.8293 96.4939 23.488C96.1739 23.136 96.0139 22.6507 96.0139 22.032C96.0139 21.2213 96.3499 20.576 97.0219 20.096C97.7045 19.6053 98.6219 19.36 99.7739 19.36C100.361 19.36 100.947 19.4293 101.534 19.568C102.121 19.696 102.601 19.872 102.974 20.096L102.206 21.616C101.481 21.1893 100.665 20.976 99.7579 20.976C99.1712 20.976 98.7232 21.0667 98.4139 21.248C98.1152 21.4187 97.9659 21.648 97.9659 21.936C97.9659 22.256 98.1259 22.4853 98.4459 22.624C98.7765 22.752 99.2832 22.8747 99.9659 22.992C100.649 23.0987 101.209 23.2213 101.646 23.36C102.083 23.4987 102.457 23.7333 102.766 24.064C103.086 24.3947 103.246 24.864 103.246 25.472C103.246 26.272 102.899 26.912 102.206 27.392C101.513 27.872 100.569 28.112 99.3739 28.112Z" fill="#484848"/>
</svg>
