<svg width="230" height="42" viewBox="0 0 230 42" fill="none" xmlns="http://www.w3.org/2000/svg">
<path d="M0.5 21C0.5 9.40202 9.90202 0 21.5 0H229.5V42H21.5C9.90202 42 0.5 32.598 0.5 21Z" fill="#ECD582"/>
<path d="M36.505 12C37.607 12 38.5 12.898 38.5 13.99V30.01C38.5 31.109 37.607 32 36.505 32H20.5V28H18.5V26H20.5V23H18.5V21H20.5V18H18.5V16H20.5V12H36.505ZM24.5 14H22.5V30H24.5V14ZM36.5 14H26.5V30H36.5V14Z" fill="#484848"/>
<path d="M62.292 28L62.276 20.576L58.596 26.72H57.668L53.988 20.672V28H52.004V16.8H53.716L58.164 24.224L62.532 16.8H64.244L64.26 28H62.292ZM67.0933 19.456H69.0933V28H67.0933V19.456ZM68.1013 18.048C67.7386 18.048 67.4346 17.936 67.1893 17.712C66.9439 17.4773 66.8213 17.1893 66.8213 16.848C66.8213 16.5067 66.9439 16.224 67.1893 16C67.4346 15.7653 67.7386 15.648 68.1013 15.648C68.4639 15.648 68.7679 15.76 69.0133 15.984C69.2586 16.1973 69.3813 16.4693 69.3813 16.8C69.3813 17.152 69.2586 17.4507 69.0133 17.696C68.7786 17.9307 68.4746 18.048 68.1013 18.048ZM74.3583 28.112C73.6649 28.112 72.9876 28.0213 72.3263 27.84C71.6649 27.6587 71.1369 27.4293 70.7423 27.152L71.5103 25.632C71.8943 25.888 72.3529 26.096 72.8863 26.256C73.4303 26.4053 73.9636 26.48 74.4863 26.48C75.6809 26.48 76.2783 26.1653 76.2783 25.536C76.2783 25.2373 76.1236 25.0293 75.8143 24.912C75.5156 24.7947 75.0303 24.6827 74.3583 24.576C73.6543 24.4693 73.0783 24.3467 72.6303 24.208C72.1929 24.0693 71.8089 23.8293 71.4783 23.488C71.1583 23.136 70.9983 22.6507 70.9983 22.032C70.9983 21.2213 71.3343 20.576 72.0063 20.096C72.6889 19.6053 73.6063 19.36 74.7583 19.36C75.3449 19.36 75.9316 19.4293 76.5183 19.568C77.1049 19.696 77.5849 19.872 77.9583 20.096L77.1903 21.616C76.4649 21.1893 75.6489 20.976 74.7423 20.976C74.1556 20.976 73.7076 21.0667 73.3983 21.248C73.0996 21.4187 72.9503 21.648 72.9503 21.936C72.9503 22.256 73.1103 22.4853 73.4303 22.624C73.7609 22.752 74.2676 22.8747 74.9503 22.992C75.6329 23.0987 76.1929 23.2213 76.6303 23.36C77.0676 23.4987 77.4409 23.7333 77.7503 24.064C78.0703 24.3947 78.2303 24.864 78.2303 25.472C78.2303 26.272 77.8836 26.912 77.1903 27.392C76.4969 27.872 75.5529 28.112 74.3583 28.112ZM85.0886 27.536C84.854 27.728 84.566 27.872 84.2246 27.968C83.894 28.064 83.542 28.112 83.1686 28.112C82.23 28.112 81.5046 27.8667 80.9926 27.376C80.4806 26.8853 80.2246 26.1707 80.2246 25.232V21.12H78.8166V19.52H80.2246V17.568H82.2246V19.52H84.5126V21.12H82.2246V25.184C82.2246 25.6 82.326 25.92 82.5286 26.144C82.7313 26.3573 83.0246 26.464 83.4086 26.464C83.8566 26.464 84.23 26.3467 84.5286 26.112L85.0886 27.536ZM89.9979 19.36C91.2565 19.36 92.2165 19.664 92.8779 20.272C93.5499 20.8693 93.8859 21.776 93.8859 22.992V28H91.9979V26.96C91.7525 27.3333 91.4005 27.6213 90.9419 27.824C90.4939 28.016 89.9499 28.112 89.3099 28.112C88.6699 28.112 88.1099 28.0053 87.6299 27.792C87.1499 27.568 86.7765 27.264 86.5099 26.88C86.2539 26.4853 86.1259 26.0427 86.1259 25.552C86.1259 24.784 86.4085 24.1707 86.9739 23.712C87.5499 23.2427 88.4512 23.008 89.6779 23.008H91.8859V22.88C91.8859 22.2827 91.7045 21.824 91.3419 21.504C90.9899 21.184 90.4619 21.024 89.7579 21.024C89.2779 21.024 88.8032 21.0987 88.3339 21.248C87.8752 21.3973 87.4859 21.6053 87.1659 21.872L86.3819 20.416C86.8299 20.0747 87.3685 19.8133 87.9979 19.632C88.6272 19.4507 89.2939 19.36 89.9979 19.36ZM89.7259 26.656C90.2272 26.656 90.6699 26.544 91.0539 26.32C91.4485 26.0853 91.7259 25.7547 91.8859 25.328V24.336H89.8219C88.6699 24.336 88.0939 24.7147 88.0939 25.472C88.0939 25.8347 88.2379 26.1227 88.5259 26.336C88.8139 26.5493 89.2139 26.656 89.7259 26.656ZM99.9406 24.336L98.4526 25.744V28H96.4526V16.128H98.4526V23.296L102.597 19.456H104.997L101.429 23.04L105.333 28H102.901L99.9406 24.336ZM114.297 23.776C114.297 23.9147 114.286 24.112 114.265 24.368H107.561C107.678 24.9973 107.982 25.4987 108.473 25.872C108.974 26.2347 109.593 26.416 110.329 26.416C111.268 26.416 112.041 26.1067 112.649 25.488L113.721 26.72C113.337 27.1787 112.852 27.5253 112.265 27.76C111.678 27.9947 111.017 28.112 110.281 28.112C109.342 28.112 108.516 27.9253 107.801 27.552C107.086 27.1787 106.532 26.6613 106.137 26C105.753 25.328 105.561 24.5707 105.561 23.728C105.561 22.896 105.748 22.1493 106.121 21.488C106.505 20.816 107.033 20.2933 107.705 19.92C108.377 19.5467 109.134 19.36 109.977 19.36C110.809 19.36 111.55 19.5467 112.201 19.92C112.862 20.2827 113.374 20.8 113.737 21.472C114.11 22.1333 114.297 22.9013 114.297 23.776ZM109.977 20.96C109.337 20.96 108.793 21.152 108.345 21.536C107.908 21.9093 107.641 22.4107 107.545 23.04H112.393C112.308 22.4213 112.046 21.92 111.609 21.536C111.172 21.152 110.628 20.96 109.977 20.96ZM118.858 28.112C118.165 28.112 117.488 28.0213 116.826 27.84C116.165 27.6587 115.637 27.4293 115.242 27.152L116.01 25.632C116.394 25.888 116.853 26.096 117.386 26.256C117.93 26.4053 118.464 26.48 118.986 26.48C120.181 26.48 120.778 26.1653 120.778 25.536C120.778 25.2373 120.624 25.0293 120.314 24.912C120.016 24.7947 119.53 24.6827 118.858 24.576C118.154 24.4693 117.578 24.3467 117.13 24.208C116.693 24.0693 116.309 23.8293 115.978 23.488C115.658 23.136 115.498 22.6507 115.498 22.032C115.498 21.2213 115.834 20.576 116.506 20.096C117.189 19.6053 118.106 19.36 119.258 19.36C119.845 19.36 120.432 19.4293 121.018 19.568C121.605 19.696 122.085 19.872 122.458 20.096L121.69 21.616C120.965 21.1893 120.149 20.976 119.242 20.976C118.656 20.976 118.208 21.0667 117.898 21.248C117.6 21.4187 117.45 21.648 117.45 21.936C117.45 22.256 117.61 22.4853 117.93 22.624C118.261 22.752 118.768 22.8747 119.45 22.992C120.133 23.0987 120.693 23.2213 121.13 23.36C121.568 23.4987 121.941 23.7333 122.25 24.064C122.57 24.3947 122.73 24.864 122.73 25.472C122.73 26.272 122.384 26.912 121.69 27.392C120.997 27.872 120.053 28.112 118.858 28.112Z" fill="#484848"/>
</svg>
