<svg width="200" height="174" viewBox="0 0 200 174" fill="none" xmlns="http://www.w3.org/2000/svg">
<path d="M0 50.74C0 23.1257 22.3858 0.73999 50 0.73999H150C177.614 0.73999 200 23.1258 200 50.74V123.74C200 151.354 177.614 173.74 150 173.74H50C22.3858 173.74 0 151.354 0 123.74V50.74Z" fill="#E2E8F0"/>
<circle cx="84.9011" cy="98.0344" r="68.5842" fill="white"/>
<circle cx="46.9756" cy="48.7156" r="40.9756" fill="#75D9BB"/>
<path d="M45.1185 161.984C45.7001 163.787 48.2508 163.787 48.8324 161.984L79.0818 68.2278H14.8691L45.1185 161.984Z" fill="#ECD582"/>
<path d="M37.2198 79.9351V95.5449C37.2198 96.6225 36.3462 97.4961 35.2686 97.4961C34.191 97.4961 33.3174 96.6225 33.3174 95.5449V68.2278H45.0247V87.74C45.0247 88.8176 44.1511 89.6912 43.0735 89.6912C41.9959 89.6912 41.1223 88.8176 41.1223 87.74V79.9351C41.1223 78.8575 40.2487 77.9839 39.171 77.9839C38.0934 77.9839 37.2198 78.8575 37.2198 79.9351Z" fill="#AFF2DE"/>
<circle cx="13.8049" cy="70.1789" r="7.80488" fill="#75D9BB"/>
<circle cx="76.2441" cy="70.1789" r="7.80488" fill="#75D9BB"/>
<circle cx="68.4388" cy="66.2765" r="3.90244" fill="#75D9BB"/>
<circle cx="29.4148" cy="70.179" r="11.7073" fill="#75D9BB"/>
<path d="M60.6341 19.4473C54.1683 19.4473 48.9268 24.6888 48.9268 31.1546H72.3414C72.3414 24.6888 67.0998 19.4473 60.6341 19.4473Z" fill="white"/>
<path d="M64.5368 23.3496C60.2263 23.3496 56.7319 26.844 56.7319 31.1545H72.3417C72.3417 26.844 68.8473 23.3496 64.5368 23.3496Z" fill="#484848"/>
<path d="M37.2195 19.4473C30.7538 19.4473 25.5122 24.6888 25.5122 31.1546H48.9268C48.9268 24.6888 43.6853 19.4473 37.2195 19.4473Z" fill="white"/>
<path d="M41.1223 23.3496C36.8117 23.3496 33.3174 26.844 33.3174 31.1545H48.9271C48.9271 26.844 45.4328 23.3496 41.1223 23.3496Z" fill="#484848"/>
<path d="M48.9267 58.4717C38.1505 58.4717 29.4146 49.7358 29.4146 38.9595H68.4389C68.4389 49.7358 59.703 58.4717 48.9267 58.4717Z" fill="white"/>
<path d="M112.147 62.1702L120.463 56.5314L145.034 64.2787L148.611 73.6663L124.656 86.0691L112.147 62.1702ZM145.009 64.2129L145.009 64.2134L145.009 64.2129ZM120.52 56.4923L120.52 56.4922L120.52 56.4923Z" fill="#AFF2DE" stroke="#75D9BB" stroke-width="3.90244"/>
<mask id="path-16-inside-1_1025:17012" fill="white">
<path d="M133.689 107.758L149.163 112.637C149.334 112.691 149.49 112.784 149.618 112.91C149.746 113.036 149.843 113.19 149.9 113.361L152.251 120.375C152.293 120.499 152.29 120.635 152.243 120.758C152.196 120.881 152.108 120.984 151.994 121.049L135.458 130.516C135.389 130.555 135.314 130.579 135.236 130.588C135.158 130.596 135.079 130.588 135.004 130.564C134.929 130.541 134.86 130.502 134.801 130.45C134.742 130.399 134.694 130.336 134.661 130.265L126.544 113.026C126.488 112.907 126.475 112.772 126.507 112.644C126.54 112.516 126.615 112.404 126.721 112.325L132.67 107.928C132.815 107.821 132.982 107.75 133.159 107.721C133.337 107.691 133.518 107.704 133.689 107.758Z"/>
</mask>
<path d="M133.689 107.758L149.163 112.637C149.334 112.691 149.49 112.784 149.618 112.91C149.746 113.036 149.843 113.19 149.9 113.361L152.251 120.375C152.293 120.499 152.29 120.635 152.243 120.758C152.196 120.881 152.108 120.984 151.994 121.049L135.458 130.516C135.389 130.555 135.314 130.579 135.236 130.588C135.158 130.596 135.079 130.588 135.004 130.564C134.929 130.541 134.86 130.502 134.801 130.45C134.742 130.399 134.694 130.336 134.661 130.265L126.544 113.026C126.488 112.907 126.475 112.772 126.507 112.644C126.54 112.516 126.615 112.404 126.721 112.325L132.67 107.928C132.815 107.821 132.982 107.75 133.159 107.721C133.337 107.691 133.518 107.704 133.689 107.758Z" fill="#AFF2DE"/>
<path d="M133.689 107.758L132.515 111.48L132.516 111.48L133.689 107.758ZM149.163 112.637L147.989 116.358L147.99 116.359L149.163 112.637ZM149.9 113.361L146.199 114.6L146.2 114.601L149.9 113.361ZM152.251 120.375L155.951 119.136L155.951 119.134L152.251 120.375ZM151.994 121.049L153.933 124.436L153.934 124.435L151.994 121.049ZM135.458 130.516L137.392 133.905L137.396 133.903L135.458 130.516ZM134.661 130.265L131.13 131.927L131.132 131.931L134.661 130.265ZM126.544 113.026L130.075 111.364L130.074 111.361L126.544 113.026ZM126.721 112.325L129.038 115.466L129.041 115.464L126.721 112.325ZM132.67 107.928L134.99 111.066L134.991 111.066L132.67 107.928ZM132.516 111.48L147.989 116.358L150.336 108.915L134.863 104.036L132.516 111.48ZM147.99 116.359C147.574 116.227 147.195 116 146.883 115.694L152.353 110.126C151.785 109.569 151.094 109.154 150.336 108.915L147.99 116.359ZM146.883 115.694C146.572 115.388 146.338 115.014 146.199 114.6L153.6 112.121C153.348 111.367 152.92 110.684 152.353 110.126L146.883 115.694ZM146.2 114.601L148.551 121.615L155.951 119.134L153.6 112.12L146.2 114.601ZM148.55 121.613C148.306 120.883 148.322 120.089 148.596 119.369L155.89 122.147C156.258 121.18 156.28 120.116 155.951 119.136L148.55 121.613ZM148.596 119.369C148.87 118.649 149.386 118.046 150.054 117.663L153.934 124.435C154.831 123.922 155.522 123.113 155.89 122.147L148.596 119.369ZM150.055 117.662L133.519 127.129L137.396 133.903L153.933 124.436L150.055 117.662ZM133.523 127.127C133.922 126.899 134.364 126.756 134.821 126.707L135.651 134.468C136.264 134.402 136.857 134.21 137.392 133.905L133.523 127.127ZM134.821 126.707C135.278 126.658 135.74 126.704 136.178 126.843L133.831 134.286C134.419 134.472 135.038 134.533 135.651 134.468L134.821 126.707ZM136.178 126.843C136.616 126.981 137.021 127.208 137.367 127.51L132.235 133.391C132.7 133.796 133.243 134.101 133.831 134.286L136.178 126.843ZM137.367 127.51C137.713 127.812 137.993 128.183 138.19 128.598L131.132 131.931C131.395 132.488 131.771 132.985 132.235 133.391L137.367 127.51ZM138.191 128.602L130.075 111.364L123.014 114.689L131.13 131.927L138.191 128.602ZM130.074 111.361C130.403 112.059 130.48 112.85 130.291 113.599L122.723 111.689C122.47 112.694 122.573 113.755 123.015 114.692L130.074 111.361ZM130.291 113.599C130.102 114.347 129.659 115.007 129.038 115.466L124.405 109.185C123.571 109.8 122.977 110.685 122.723 111.689L130.291 113.599ZM129.041 115.464L134.99 111.066L130.351 104.79L124.402 109.187L129.041 115.464ZM134.991 111.066C134.64 111.325 134.233 111.498 133.803 111.57L132.516 103.872C131.732 104.003 130.989 104.318 130.35 104.791L134.991 111.066ZM133.803 111.57C133.373 111.642 132.931 111.611 132.515 111.48L134.863 104.036C134.105 103.797 133.301 103.741 132.516 103.872L133.803 111.57Z" fill="#75D9BB" mask="url(#path-16-inside-1_1025:17012)"/>
<path d="M98.0408 98.5638L105.795 101.009L106.503 102.952L99.7807 106.565L96.3462 99.7501L98.0408 98.5638ZM106.393 101.197C106.393 101.197 106.393 101.197 106.393 101.197L106.393 101.197Z" fill="#D8F3E8" stroke="#75D9BB" stroke-width="3.90244"/>
<path d="M155.337 87.9866L165.417 91.1648L166.532 94.5512L157.08 100.03L152.48 90.121L155.337 87.9866Z" fill="#D8F3E8" stroke="#75D9BB" stroke-width="3.90244"/>
<path d="M107.759 122.087L117.839 125.265L118.954 128.652L109.502 134.131L104.902 124.221L107.759 122.087Z" fill="#AFF2DE" stroke="#75D9BB" stroke-width="3.90244"/>
<line x1="111.406" y1="47.5384" x2="108.111" y2="41.2093" stroke="#AFF2DE" stroke-width="3.90244" stroke-linecap="round"/>
<line x1="102.696" y1="50.1777" x2="95.8634" y2="45.2256" stroke="#AFF2DE" stroke-width="3.90244" stroke-linecap="round"/>
<line x1="168.549" y1="83.1212" x2="174.878" y2="79.8265" stroke="#D8F3E8" stroke-width="3.90244" stroke-linecap="round"/>
<line x1="174.735" y1="93.5609" x2="183.172" y2="93.4232" stroke="#D8F3E8" stroke-width="3.90244" stroke-linecap="round"/>
<line x1="149.139" y1="140.705" x2="155.512" y2="148.628" stroke="#D8F3E8" stroke-width="3.90244" stroke-linecap="round"/>
<line x1="140.013" y1="143.401" x2="140.773" y2="148.165" stroke="#D8F3E8" stroke-width="3.90244" stroke-linecap="round"/>
</svg>
