<svg width="200" height="174" viewBox="0 0 200 174" fill="none" xmlns="http://www.w3.org/2000/svg">
<g clip-path="url(#clip0_1025:16801)">
<path d="M0 50.74C0 23.1257 22.3858 0.73999 50 0.73999H150C177.614 0.73999 200 23.1258 200 50.74V123.74C200 151.354 177.614 173.74 150 173.74H50C22.3858 173.74 0 151.354 0 123.74V50.74Z" fill="#E2E8F0"/>
<circle cx="79.2881" cy="92.4771" r="68.9204" fill="white"/>
<path d="M92.1571 91.936C65.0843 91.936 43.1375 114.761 43.1375 142.916H141.177C141.177 114.761 119.23 91.936 92.1571 91.936Z" fill="#75D9BB"/>
<path d="M62.7453 117.426V133.113C62.7453 134.195 61.8674 135.073 60.7845 135.073C59.7016 135.073 58.8237 134.195 58.8237 133.113V107.622H70.5884V125.269C70.5884 126.352 69.7106 127.23 68.6277 127.23C67.5447 127.23 66.6669 126.352 66.6669 125.269V117.426C66.6669 116.343 65.789 115.465 64.7061 115.465C63.6232 115.465 62.7453 116.343 62.7453 117.426Z" fill="#AFF2DE"/>
<path d="M34.5179 23.5152C34.282 21.6263 36.605 20.543 37.9003 21.9379L105.267 94.4802L46.7857 121.751L34.5179 23.5152Z" fill="#ECD582"/>
<path d="M113.726 107.622C107.228 107.622 101.961 112.89 101.961 119.387H125.49C125.49 112.89 120.223 107.622 113.726 107.622Z" fill="white"/>
<path d="M117.647 111.544C113.315 111.544 109.804 115.055 109.804 119.387H125.49C125.49 115.055 121.979 111.544 117.647 111.544Z" fill="#484848"/>
<circle cx="105.882" cy="99.7792" r="7.84314" fill="#75D9BB"/>
<circle cx="86.2746" cy="103.701" r="3.92157" fill="#75D9BB"/>
<circle cx="80.3924" cy="105.662" r="5.88235" fill="#75D9BB"/>
<circle cx="50.9806" cy="123.309" r="7.84314" fill="#75D9BB"/>
<path d="M90.1961 107.622C83.6986 107.622 78.4314 112.89 78.4314 119.387H101.961C101.961 112.89 96.6936 107.622 90.1961 107.622Z" fill="white"/>
<path d="M90.1961 107.622C83.6986 107.622 78.4314 112.89 78.4314 119.387H101.961C101.961 112.89 96.6936 107.622 90.1961 107.622Z" fill="white"/>
<path d="M94.1178 111.544C89.7862 111.544 86.2747 115.055 86.2747 119.387H101.961C101.961 115.055 98.4494 111.544 94.1178 111.544Z" fill="#484848"/>
<path d="M115.687 135.073C79.9506 135.073 23.5298 139.619 23.5298 146.838H152.942C152.942 139.619 151.423 135.073 115.687 135.073Z" fill="#AFF2DE"/>
<path d="M98.0395 135.073C103.544 135.073 108.166 132.553 109.45 129.148C109.832 128.135 108.926 127.23 107.843 127.23H88.2356C87.1527 127.23 86.2471 128.135 86.6291 129.148C87.9126 132.553 92.5345 135.073 98.0395 135.073Z" fill="#484848"/>
<path d="M91.5145 117.693C90.9358 115.606 92.1584 113.445 94.2455 112.866L98.0244 111.818L100.12 119.376L96.3415 120.424C94.2544 121.003 92.0933 119.78 91.5145 117.693Z" fill="#94A3B8"/>
<path d="M98.0246 111.818C97.4458 109.731 98.6685 107.57 100.756 106.991L112.092 103.847L116.284 118.963L104.947 122.107C102.86 122.686 100.699 121.463 100.121 119.376L98.0246 111.818Z" fill="#CBD5E1"/>
<path d="M112.092 103.847C111.513 101.76 112.736 99.5992 114.823 99.0204L133.718 93.7804L140.006 116.454L121.111 121.694C119.024 122.273 116.863 121.05 116.284 118.963L112.092 103.847Z" fill="#94A3B8"/>
<path d="M133.718 93.7804C133.139 91.6934 134.362 89.5323 136.449 88.9535L162.901 81.6175L171.285 111.849L144.833 119.185C142.746 119.764 140.585 118.541 140.006 116.454L133.718 93.7804Z" fill="#CBD5E1"/>
<path d="M159.122 82.6654C158.544 80.5784 159.766 78.4173 161.853 77.8385L188.306 70.5025C196.521 81.2863 200.274 94.8172 198.786 108.292L172.333 115.628C170.246 116.207 168.085 114.984 167.506 112.897L159.122 82.6654Z" fill="#94A3B8"/>
<path d="M189.059 73.2177C195.559 82.7076 198.717 94.0948 198.033 105.577C191.533 96.0871 188.375 84.6999 189.059 73.2177Z" fill="#71BBFF" stroke="#475569" stroke-width="1.96078"/>
</g>
<defs>
<clipPath id="clip0_1025:16801">
<path d="M0 50.74C0 23.1257 22.3858 0.73999 50 0.73999H150C177.614 0.73999 200 23.1258 200 50.74V123.74C200 151.354 177.614 173.74 150 173.74H50C22.3858 173.74 0 151.354 0 123.74V50.74Z" fill="white"/>
</clipPath>
</defs>
</svg>
