<svg width="200" height="174" viewBox="0 0 200 174" fill="none" xmlns="http://www.w3.org/2000/svg">
<g clip-path="url(#clip0_1025:17651)">
<path d="M0 50.4265C0 22.8123 22.3858 0.426514 50 0.426514H150C177.614 0.426514 200 22.8123 200 50.4265V123.427C200 151.041 177.614 173.427 150 173.427H50C22.3858 173.427 0 151.041 0 123.427V50.4265Z" fill="#E2E8F0"/>
<circle cx="82.5" cy="92.9265" r="69.5" fill="white"/>
<path d="M94.1201 91.5864C67.0582 91.5864 45.1201 114.402 45.1201 142.546H143.12C143.12 114.402 121.182 91.5864 94.1201 91.5864Z" fill="#75D9BB"/>
<path d="M64.7198 117.067V132.747C64.7198 133.829 63.8423 134.707 62.7598 134.707C61.6773 134.707 60.7998 133.829 60.7998 132.747V107.267H72.5598V124.907C72.5598 125.989 71.6823 126.867 70.5998 126.867C69.5173 126.867 68.6398 125.989 68.6398 124.907V117.067C68.6398 115.984 67.7623 115.107 66.6798 115.107C65.5973 115.107 64.7198 115.984 64.7198 117.067Z" fill="#AFF2DE"/>
<path d="M36.5039 23.193C36.2681 21.3049 38.5902 20.2221 39.885 21.6164L107.225 94.1297L48.7669 121.389L36.5039 23.193Z" fill="#ECD582"/>
<path d="M115.68 107.267C109.185 107.267 103.92 112.532 103.92 119.027H127.44C127.44 112.532 122.175 107.267 115.68 107.267Z" fill="white"/>
<path d="M119.6 111.187C115.27 111.187 111.76 114.697 111.76 119.027H127.44C127.44 114.697 123.93 111.187 119.6 111.187Z" fill="#484848"/>
<circle cx="107.84" cy="99.4264" r="7.84" fill="#75D9BB"/>
<circle cx="88.2398" cy="103.347" r="3.92" fill="#75D9BB"/>
<circle cx="82.36" cy="105.307" r="5.88" fill="#75D9BB"/>
<circle cx="52.9601" cy="122.946" r="7.84" fill="#75D9BB"/>
<path d="M92.1599 107.267C85.665 107.267 80.3999 112.532 80.3999 119.027H103.92C103.92 112.532 98.6548 107.267 92.1599 107.267Z" fill="white"/>
<path d="M96.0797 111.187C91.7498 111.187 88.2397 114.697 88.2397 119.027H103.92C103.92 114.697 100.41 111.187 96.0797 111.187Z" fill="#484848"/>
<path d="M117.64 134.707C81.9182 134.707 25.52 139.25 25.52 146.467H154.88C154.88 139.25 153.362 134.707 117.64 134.707Z" fill="#AFF2DE"/>
<path d="M93.969 127.902C93.8559 126.825 94.6369 125.861 95.7134 125.748C96.79 125.634 97.7544 126.415 97.8676 127.492L93.969 127.902ZM109.563 126.263C109.45 125.186 110.231 124.222 111.308 124.109C112.384 123.995 113.349 124.776 113.462 125.853L109.563 126.263ZM97.8676 127.492L97.8699 127.502C97.8699 127.502 97.876 127.52 97.8857 127.538C97.9055 127.575 97.9508 127.643 98.0464 127.735C98.2463 127.926 98.6087 128.164 99.1802 128.378C100.325 128.808 102.004 129.028 103.92 128.827L104.33 132.725C101.94 132.976 99.6292 132.734 97.8033 132.049C96.1 131.41 94.2016 130.114 93.969 127.902L97.8676 127.492ZM103.92 128.827C105.836 128.625 107.433 128.06 108.463 127.403C108.978 127.074 109.283 126.766 109.439 126.537C109.513 126.428 109.543 126.352 109.555 126.311C109.561 126.292 109.563 126.273 109.563 126.273L109.563 126.263L113.462 125.853C113.694 128.066 112.107 129.727 110.573 130.706C108.93 131.756 106.72 132.474 104.33 132.725L103.92 128.827Z" fill="#484848"/>
<circle cx="162" cy="99.4263" r="28" fill="white"/>
<path d="M135.158 121.445L121.143 135.457C119.611 136.989 119.611 139.472 121.143 141.004C122.674 142.536 125.158 142.535 126.689 141.004L140.701 126.988C146.947 131.995 154.715 134.718 162.72 134.706C182.195 134.706 198 118.901 198 99.4265C198 79.9519 182.195 64.1465 162.72 64.1465C143.245 64.1465 127.44 79.9519 127.44 99.4265C127.429 107.431 130.152 115.2 135.158 121.445ZM143.022 118.536C138.047 113.42 135.269 106.563 135.28 99.4265C135.28 84.2639 147.561 71.9865 162.72 71.9865C177.883 71.9865 190.16 84.2639 190.16 99.4265C190.16 114.585 177.883 126.866 162.72 126.866C155.584 126.878 148.726 124.099 143.61 119.124L143.022 118.536Z" fill="#475569"/>
<circle cx="131.36" cy="138.626" r="7.84" fill="#75D9BB"/>
</g>
<defs>
<clipPath id="clip0_1025:17651">
<path d="M0 50.4265C0 22.8123 22.3858 0.426514 50 0.426514H150C177.614 0.426514 200 22.8123 200 50.4265V123.427C200 151.041 177.614 173.427 150 173.427H50C22.3858 173.427 0 151.041 0 123.427V50.4265Z" fill="white"/>
</clipPath>
</defs>
</svg>
