<svg width="200" height="174" viewBox="0 0 200 174" fill="none" xmlns="http://www.w3.org/2000/svg">
<g clip-path="url(#clip0_1025:16973)">
<path d="M0 50.1665C0 22.5523 22.3858 0.166504 50 0.166504H150C177.614 0.166504 200 22.5523 200 50.1665V123.167C200 150.781 177.614 173.167 150 173.167H50C22.3858 173.167 0 150.781 0 123.167V50.1665Z" fill="#E2E8F0"/>
<circle cx="105.818" cy="91.8916" r="68.9114" fill="white"/>
<path d="M118.145 91.3506C91.0755 91.3506 69.1316 114.172 69.1316 142.324H167.158C167.158 114.172 145.214 91.3506 118.145 91.3506Z" fill="#75D9BB"/>
<path d="M88.7367 116.838V132.522C88.7367 133.605 87.859 134.482 86.7762 134.482C85.6934 134.482 84.8157 133.605 84.8157 132.522V107.035H96.5788V124.68C96.5788 125.762 95.7011 126.64 94.6183 126.64C93.5355 126.64 92.6578 125.762 92.6578 124.68V116.838C92.6578 115.755 91.78 114.877 90.6973 114.877C89.6145 114.877 88.7367 115.755 88.7367 116.838Z" fill="#AFF2DE"/>
<path d="M60.5129 22.9388C60.2771 21.0501 62.5998 19.967 63.895 21.3617L131.253 93.8945L72.7792 121.161L60.5129 22.9388Z" fill="#ECD582"/>
<path d="M139.71 107.035C133.214 107.035 127.947 112.301 127.947 118.798H151.474C151.474 112.301 146.207 107.035 139.71 107.035Z" fill="white"/>
<path d="M139.711 110.957C135.38 110.957 131.869 114.468 131.869 118.799H147.553C147.553 114.468 144.042 110.957 139.711 110.957Z" fill="#484848"/>
<circle cx="131.868" cy="99.1927" r="7.84211" fill="#75D9BB"/>
<circle cx="112.263" cy="103.114" r="3.92105" fill="#75D9BB"/>
<circle cx="106.381" cy="105.074" r="5.88158" fill="#75D9BB"/>
<circle cx="76.9737" cy="122.719" r="7.84211" fill="#75D9BB"/>
<path d="M116.184 107.035C109.688 107.035 104.421 112.301 104.421 118.798H127.947C127.947 112.301 122.681 107.035 116.184 107.035Z" fill="white"/>
<path d="M116.185 110.957C111.854 110.957 108.343 114.468 108.343 118.799H124.027C124.027 114.468 120.516 110.957 116.185 110.957Z" fill="#484848"/>
<path d="M141.671 134.482C105.94 134.482 49.5262 139.027 49.5262 146.245H178.921C178.921 139.027 177.402 134.482 141.671 134.482Z" fill="#AFF2DE"/>
<path d="M118.145 126.641C118.145 125.558 119.023 124.68 120.106 124.68C121.188 124.68 122.066 125.558 122.066 126.641H118.145ZM133.829 126.641C133.829 125.558 134.707 124.68 135.79 124.68C136.873 124.68 137.75 125.558 137.75 126.641H133.829ZM122.066 126.641L122.067 126.651C122.067 126.651 122.072 126.669 122.079 126.688C122.095 126.727 122.133 126.8 122.219 126.901C122.398 127.112 122.733 127.387 123.279 127.66C124.373 128.206 126.021 128.601 127.948 128.601V132.522C125.544 132.522 123.271 132.039 121.526 131.167C119.898 130.353 118.145 128.866 118.145 126.641H122.066ZM127.948 128.601C129.875 128.601 131.523 128.206 132.616 127.66C133.162 127.387 133.498 127.112 133.677 126.901C133.762 126.8 133.8 126.727 133.816 126.688C133.824 126.669 133.828 126.651 133.828 126.651L133.829 126.641H137.75C137.75 128.866 135.997 130.353 134.37 131.167C132.625 132.039 130.352 132.522 127.948 132.522V128.601Z" fill="#484848"/>
</g>
<defs>
<clipPath id="clip0_1025:16973">
<path d="M0 50.1665C0 22.5523 22.3858 0.166504 50 0.166504H150C177.614 0.166504 200 22.5523 200 50.1665V123.167C200 150.781 177.614 173.167 150 173.167H50C22.3858 173.167 0 150.781 0 123.167V50.1665Z" fill="white"/>
</clipPath>
</defs>
</svg>
