<svg width="190" height="160" viewBox="0 0 190 160" fill="none" xmlns="http://www.w3.org/2000/svg">
<circle cx="79.6294" cy="90.2944" r="68.5842" fill="white"/>
<circle cx="41.7039" cy="40.9756" r="40.9756" fill="#75D9BB"/>
<path d="M39.8468 154.244C40.4284 156.047 42.979 156.047 43.5607 154.244L73.81 60.4878H9.59741L39.8468 154.244Z" fill="#ECD582"/>
<path d="M31.948 72.1951V87.8049C31.948 88.8825 31.0744 89.7561 29.9968 89.7561C28.9191 89.7561 28.0455 88.8825 28.0455 87.8049V60.4878H39.7528V80C39.7528 81.0776 38.8793 81.9512 37.8016 81.9512C36.724 81.9512 35.8504 81.0776 35.8504 80V72.1951C35.8504 71.1175 34.9768 70.2439 33.8992 70.2439C32.8216 70.2439 31.948 71.1175 31.948 72.1951Z" fill="#AFF2DE"/>
<circle cx="8.53315" cy="62.439" r="7.80488" fill="#75D9BB"/>
<circle cx="70.9724" cy="62.439" r="7.80488" fill="#75D9BB"/>
<circle cx="63.1672" cy="58.5366" r="3.90244" fill="#75D9BB"/>
<circle cx="24.143" cy="62.439" r="11.7073" fill="#75D9BB"/>
<path d="M55.3623 11.7073C48.8966 11.7073 43.655 16.9489 43.655 23.4146H67.0697C67.0697 16.9489 61.8281 11.7073 55.3623 11.7073Z" fill="white"/>
<path d="M59.265 15.6097C54.9544 15.6097 51.4601 19.1041 51.4601 23.4146H67.0698C67.0698 19.1041 63.5755 15.6097 59.265 15.6097Z" fill="#484848"/>
<path d="M31.9478 11.7073C25.482 11.7073 20.2405 16.9489 20.2405 23.4146H43.6551C43.6551 16.9489 38.4136 11.7073 31.9478 11.7073Z" fill="white"/>
<path d="M35.8504 15.6097C31.5399 15.6097 28.0455 19.1041 28.0455 23.4146H43.6553C43.6553 19.1041 40.1609 15.6097 35.8504 15.6097Z" fill="#484848"/>
<path d="M43.6551 50.7317C32.8789 50.7317 24.1429 41.9958 24.1429 31.2195H63.1673C63.1673 41.9958 54.4314 50.7317 43.6551 50.7317Z" fill="white"/>
<path d="M106.875 54.4302L115.191 48.7915L139.762 56.5387L143.339 65.9263L119.385 78.3292L106.875 54.4302ZM139.737 56.473L139.737 56.4735L139.737 56.473ZM115.249 48.7523L115.249 48.7523L115.249 48.7523Z" fill="#AFF2DE" stroke="#75D9BB" stroke-width="3.90244"/>
<mask id="path-15-inside-1_1190_24291" fill="white">
<path d="M128.418 100.018L143.891 104.897C144.062 104.951 144.218 105.044 144.346 105.17C144.475 105.296 144.571 105.45 144.628 105.621L146.979 112.635C147.021 112.76 147.018 112.895 146.971 113.018C146.924 113.141 146.836 113.244 146.722 113.309L130.186 122.776C130.118 122.815 130.042 122.839 129.964 122.848C129.886 122.856 129.807 122.848 129.733 122.824C129.658 122.801 129.589 122.762 129.529 122.71C129.47 122.659 129.423 122.596 129.389 122.525L121.273 105.286C121.216 105.167 121.203 105.032 121.236 104.904C121.268 104.776 121.343 104.664 121.45 104.585L127.399 100.188C127.543 100.081 127.711 100.01 127.888 99.9807C128.065 99.9511 128.246 99.9639 128.418 100.018Z"/>
</mask>
<path d="M128.418 100.018L143.891 104.897C144.062 104.951 144.218 105.044 144.346 105.17C144.475 105.296 144.571 105.45 144.628 105.621L146.979 112.635C147.021 112.76 147.018 112.895 146.971 113.018C146.924 113.141 146.836 113.244 146.722 113.309L130.186 122.776C130.118 122.815 130.042 122.839 129.964 122.848C129.886 122.856 129.807 122.848 129.733 122.824C129.658 122.801 129.589 122.762 129.529 122.71C129.47 122.659 129.423 122.596 129.389 122.525L121.273 105.286C121.216 105.167 121.203 105.032 121.236 104.904C121.268 104.776 121.343 104.664 121.45 104.585L127.399 100.188C127.543 100.081 127.711 100.01 127.888 99.9807C128.065 99.9511 128.246 99.9639 128.418 100.018Z" fill="#AFF2DE"/>
<path d="M128.418 100.018L127.244 103.74L127.244 103.74L128.418 100.018ZM143.891 104.897L142.717 108.618L142.718 108.619L143.891 104.897ZM144.628 105.621L140.928 106.86L140.928 106.861L144.628 105.621ZM146.979 112.635L150.68 111.396L150.679 111.394L146.979 112.635ZM146.722 113.309L148.661 116.696L148.662 116.696L146.722 113.309ZM130.186 122.776L132.121 126.165L132.125 126.163L130.186 122.776ZM129.389 122.525L125.858 124.187L125.86 124.191L129.389 122.525ZM121.273 105.286L124.803 103.624L124.802 103.621L121.273 105.286ZM121.45 104.585L123.766 107.726L123.769 107.724L121.45 104.585ZM127.399 100.188L129.718 103.326L129.719 103.326L127.399 100.188ZM127.244 103.74L142.717 108.618L145.064 101.175L129.591 96.2961L127.244 103.74ZM142.718 108.619C142.302 108.487 141.923 108.26 141.612 107.954L147.081 102.386C146.514 101.829 145.822 101.414 145.064 101.175L142.718 108.619ZM141.612 107.954C141.301 107.648 141.066 107.274 140.928 106.86L148.329 104.381C148.076 103.627 147.648 102.944 147.081 102.386L141.612 107.954ZM140.928 106.861L143.279 113.875L150.679 111.394L148.328 104.38L140.928 106.861ZM143.278 113.873C143.034 113.143 143.05 112.349 143.324 111.629L150.618 114.407C150.986 113.44 151.008 112.376 150.68 111.396L143.278 113.873ZM143.324 111.629C143.599 110.909 144.114 110.306 144.783 109.923L148.662 116.696C149.559 116.182 150.25 115.373 150.618 114.407L143.324 111.629ZM144.783 109.922L128.247 119.389L132.125 126.163L148.661 116.696L144.783 109.922ZM128.251 119.387C128.65 119.159 129.092 119.016 129.549 118.967L130.38 126.728C130.993 126.662 131.585 126.47 132.121 126.165L128.251 119.387ZM129.549 118.967C130.006 118.918 130.468 118.964 130.906 119.103L128.559 126.546C129.147 126.732 129.767 126.793 130.38 126.728L129.549 118.967ZM130.906 119.103C131.344 119.241 131.749 119.468 132.095 119.77L126.964 125.651C127.428 126.056 127.971 126.361 128.559 126.546L130.906 119.103ZM132.095 119.77C132.442 120.072 132.722 120.443 132.918 120.858L125.86 124.191C126.123 124.748 126.499 125.245 126.964 125.651L132.095 119.77ZM132.92 120.862L124.803 103.624L117.742 106.949L125.858 124.187L132.92 120.862ZM124.802 103.621C125.131 104.319 125.208 105.11 125.019 105.859L117.452 103.949C117.198 104.954 117.301 106.015 117.744 106.952L124.802 103.621ZM125.019 105.859C124.831 106.607 124.388 107.267 123.766 107.726L119.133 101.445C118.299 102.06 117.705 102.945 117.452 103.949L125.019 105.859ZM123.769 107.724L129.718 103.326L125.079 97.05L119.13 101.447L123.769 107.724ZM129.719 103.326C129.368 103.585 128.961 103.758 128.531 103.83L127.244 96.1317C126.46 96.2628 125.718 96.5777 125.078 97.0506L129.719 103.326ZM128.531 103.83C128.101 103.902 127.66 103.871 127.244 103.74L129.592 96.2962C128.833 96.057 128.029 96.0006 127.244 96.1317L128.531 103.83Z" fill="#75D9BB" mask="url(#path-15-inside-1_1190_24291)"/>
<path d="M92.7691 90.8237L100.524 93.2687L101.231 95.2121L94.509 98.8248L91.0745 92.0101L92.7691 90.8237ZM101.121 93.4572C101.121 93.4572 101.121 93.4572 101.121 93.4572L101.121 93.4572Z" fill="#D8F3E8" stroke="#75D9BB" stroke-width="3.90244"/>
<path d="M150.065 80.2465L160.145 83.4247L161.26 86.8111L151.808 92.2904L147.208 82.3808L150.065 80.2465Z" fill="#D8F3E8" stroke="#75D9BB" stroke-width="3.90244"/>
<path d="M102.487 114.347L112.567 117.525L113.682 120.912L104.23 126.391L99.63 116.481L102.487 114.347Z" fill="#AFF2DE" stroke="#75D9BB" stroke-width="3.90244"/>
<line x1="106.134" y1="39.7983" x2="102.839" y2="33.4692" stroke="#AFF2DE" stroke-width="3.90244" stroke-linecap="round"/>
<line x1="97.4241" y1="42.4377" x2="90.5918" y2="37.4857" stroke="#AFF2DE" stroke-width="3.90244" stroke-linecap="round"/>
<line x1="163.278" y1="75.3813" x2="169.607" y2="72.0866" stroke="#D8F3E8" stroke-width="3.90244" stroke-linecap="round"/>
<line x1="169.464" y1="85.8208" x2="177.901" y2="85.6831" stroke="#D8F3E8" stroke-width="3.90244" stroke-linecap="round"/>
<line x1="143.867" y1="132.964" x2="150.24" y2="140.888" stroke="#D8F3E8" stroke-width="3.90244" stroke-linecap="round"/>
<line x1="134.741" y1="135.661" x2="135.501" y2="140.425" stroke="#D8F3E8" stroke-width="3.90244" stroke-linecap="round"/>
</svg>
