<svg width="32" height="32" viewBox="0 0 32 32" fill="none" xmlns="http://www.w3.org/2000/svg">
<path d="M0.166975 11.3337L5.28537 4.29148C5.35056 4.20123 5.43626 4.12774 5.53544 4.07706C5.63462 4.02639 5.74442 3.99998 5.85582 4H26.121C26.2438 4.00042 26.3645 4.0325 26.4712 4.09313C26.578 4.15377 26.6673 4.24091 26.7305 4.34613L31.8099 11.3181C31.9319 11.4478 31.9998 11.619 32 11.797C31.9999 11.9765 31.932 12.1493 31.8099 12.281L16.6761 28.5021C16.613 28.57 16.5371 28.6247 16.4528 28.6633C16.3685 28.7018 16.2775 28.7234 16.1848 28.7268C16.0922 28.7302 15.9998 28.7153 15.9129 28.683C15.826 28.6507 15.7463 28.6016 15.6784 28.5386L15.6368 28.4943L0.187813 12.2862C0.157882 12.254 0.130861 12.2191 0.107065 12.1821C0.0268298 12.0537 -0.00990575 11.9029 0.00229059 11.7519C0.0144869 11.601 0.0749677 11.4581 0.174789 11.3441L0.166975 11.3337ZM11.727 12.5022L16.1421 25.7435L20.4738 12.5022H11.727ZM21.956 12.5022L17.8013 25.2335L29.687 12.5022H21.956ZM14.5115 25.2725L10.2449 12.5022H2.33676L14.5115 25.2725ZM7.19728 5.41053L10.771 10.5868L14.5923 5.41053H7.19728ZM17.4184 5.41053L21.4011 10.5868L24.816 5.41053H17.4184ZM26.1497 5.93102L22.7634 11.0839H29.9188L26.1497 5.93883V5.93102ZM20.0154 11.0917L16.0014 5.87377L12.1464 11.0917H20.0154ZM9.40874 11.0917L5.84279 5.92322L2.07628 11.0917H9.40874Z" fill="#484848"/>
</svg>
