<svg width="32" height="32" viewBox="0 0 32 32" fill="none" xmlns="http://www.w3.org/2000/svg">
<path d="M12.0502 25.4305C11.6859 25.44 11.3664 25.1748 11.3152 24.8118C11.2609 24.433 11.5197 24.0827 11.8968 24.0101C11.4814 21.6837 10.3471 20.4021 9.14882 19.0479C8.21579 17.9936 7.24762 16.8983 6.48394 15.2853C5.73304 13.6975 5.32085 12.0561 5.33363 10.3515C5.34961 8.64698 5.78736 6.89192 6.73956 5.07689C6.74595 5.06426 6.75234 5.05479 6.75874 5.04216C8.0081 2.95251 9.75593 1.5573 11.7019 0.774465C13.3347 0.114739 15.1081 -0.109378 16.8463 0.0484506C18.5781 0.20628 20.2749 0.742899 21.7575 1.6078C23.6427 2.70945 25.1924 4.34456 26.0456 6.40896C26.5057 7.52639 26.8188 8.77324 26.8572 10.14C26.8955 11.5005 26.6591 12.9683 26.0232 14.5214C25.1732 16.6016 24.0485 17.8926 22.9972 19.1016C22.0291 20.2159 21.128 21.2512 20.6263 22.839C20.9107 22.9053 21.1344 23.1357 21.1791 23.4387C21.2334 23.8301 20.9555 24.1931 20.5592 24.2468L20.3132 24.2815C20.2685 24.6256 20.2397 24.9949 20.2269 25.3895L20.3068 25.3769C20.703 25.3232 21.0705 25.5978 21.1248 25.9892C21.1791 26.3807 20.9011 26.7437 20.5049 26.7973L20.2557 26.832C20.2589 26.8794 20.2621 26.9267 20.2653 26.9741C20.2876 27.2519 20.2908 27.5202 20.2749 27.7759L20.3164 27.7695C20.7158 27.7222 21.0769 28.0031 21.128 28.3945C21.1759 28.7891 20.8915 29.1458 20.4953 29.1963L19.9585 29.2626C19.5751 30.2443 18.8913 30.9924 18.0829 31.4533C17.5269 31.7721 16.9102 31.9552 16.2903 31.9931C15.6608 32.0309 15.025 31.9141 14.4434 31.6364C13.7788 31.3144 13.1845 30.7809 12.7531 30.0139C12.5454 29.9097 12.392 29.7077 12.3601 29.4615C12.3473 29.3636 12.3569 29.2689 12.3825 29.1805C12.2578 28.8144 12.1652 28.4135 12.1045 27.9716L12.0821 27.9747C11.6859 28.0284 11.3184 27.7538 11.2641 27.3623C11.2098 26.9709 11.4878 26.6079 11.884 26.5543L12.0565 26.529C12.0693 26.1439 12.0661 25.7777 12.0502 25.4305ZM13.2484 23.8175L19.1565 22.9873C19.6646 20.8724 20.7701 19.6003 21.9684 18.2272C22.9525 17.0971 24.0006 15.8913 24.7674 14.0163C25.3298 12.6432 25.5375 11.3553 25.5056 10.1685C25.4736 8.98473 25.1988 7.89256 24.7898 6.90455C24.0549 5.12739 22.7097 3.71324 21.0673 2.75364C19.754 1.98659 18.2554 1.50995 16.7249 1.37422C15.2007 1.23533 13.6446 1.43419 12.2099 2.01185C10.5292 2.69051 9.01781 3.89632 7.93141 5.71136C7.08785 7.32753 6.69802 8.87425 6.68524 10.361C6.67246 11.8572 7.03992 13.3061 7.70774 14.7171C8.38834 16.1565 9.2958 17.1792 10.1649 18.1641C11.5197 19.6982 12.801 21.147 13.2484 23.8175ZM18.9169 24.4709L13.3986 25.2443C13.4145 25.5915 13.4209 25.9545 13.4145 26.3396L18.8625 25.5757C18.8689 25.1875 18.8849 24.8181 18.9169 24.4709ZM13.4433 27.7853C13.4816 28.0757 13.5392 28.3409 13.6127 28.5871L18.9009 27.9432C18.936 27.6717 18.9424 27.3844 18.9169 27.0783V27.0719L18.9137 27.0183L13.4433 27.7853ZM14.3635 29.9444C14.568 30.1559 14.7949 30.3201 15.0346 30.4337C15.402 30.6105 15.8078 30.6831 16.2072 30.661C16.6194 30.6357 17.0284 30.5126 17.4023 30.298C17.7538 30.0959 18.0701 29.815 18.3225 29.4615L14.3635 29.9444Z" fill="#484848"/>
</svg>
